<?xml version="1.0" standalone="no"?>
<!DOCTYPE svg PUBLIC "-//W3C//DTD SVG 1.1//EN" "http://www.w3.org/Graphics/SVG/1.1/DTD/svg11.dtd">
<svg xmlns="http://www.w3.org/2000/svg">
<defs >
<font id="Baloo2" horiz-adv-x="649" ><font-face
    font-family="Baloo 2"
    units-per-em="1000"
    panose-1="3 8 5 2 4 3 2 2 2 0"
    ascent="1050"
    descent="-524"
    alphabetic="0" />
<glyph unicode=" " glyph-name="space" horiz-adv-x="200" />
<glyph unicode="!" glyph-name="exclam" horiz-adv-x="250" d="M164 582Q164 552 164 503T162 399T158 287T154 187Q141 177 121 177Q107 177 98 183T88 202Q86 231 84 283T81 394T80 511T79 612Q100 625 124 625Q164 625 164 582ZM66 45Q66 69 81 85T122 101Q148
101 163 85T178 45Q178 21 163 5T122 -11Q96 -11 81 5T66 45Z" />
<glyph unicode="&quot;" glyph-name="quotedbl" horiz-adv-x="270" d="M101 418Q87 412 70 412Q38 412 37 441L31 615Q49 625 70 625Q107 625 107 586Q107 573 107 552T105 507T103 460T101 418ZM234 418Q219 412 202 412Q171 412 170 441L163 615Q172 620 181
622T203 625Q239 625 239 585Q239 573 239 552T237 507T236 460T234 418Z" />
<glyph unicode="#" glyph-name="numbersign" horiz-adv-x="667" d="M494 396L458 224H594Q596 218 598 211T600 194Q600 162 566 162H445L411 -3Q406 -4 400 -4T386 -5Q370 -5 361 2T351 27Q351 37 354 51T359 76L377 162H229L195 -3Q190 -4 184 -4T170 -5Q154
-5 145 2T135 27Q135 37 138 51T144 76L162 162H49Q47 168 45 175T43 191Q43 224 76 224H175L211 396H79Q77 402 75 409T72 425Q72 458 106 458H224L256 611Q261 612 268 612T281 613Q297 613 306 606T316 581Q316 571 313 557T307 532L291 458H439L472 611Q477
612 484 612T497 613Q513 613 522 606T532 581Q532 571 529 557T523 532L507 458H624Q626 452 628 445T630 428Q630 396 596 396H494ZM242 224H390L426 396H278L242 224Z" />
<glyph unicode="$" glyph-name="dollar" horiz-adv-x="522" d="M257 55Q324 55 358 85T393 164Q393 206 367 232T283 275L196 301Q132 320 96 357T59 457Q59 524 102 566T221 618V697Q226 699 234 700T254 702Q294 702 294 669V620Q328 617 357 610T407 592T440
568T452 542Q452 528 445 518T427 502Q401 522 360 537T267 552Q208 552 175 527T141 457Q141 422 165 400T245 362L306 344Q385 321 430 280T476 164Q476 92 429 45T294 -11V-89Q289 -91 281 -92T262 -94Q221 -94 221 -61V-11Q183 -8 152 0T99 21T66 47T54 75Q54
92 64 103T89 120Q100 109 116 98T153 77T200 61T257 55Z" />
<glyph unicode="%" glyph-name="percent" horiz-adv-x="772" d="M335 474Q335 441 324 415T294 371T249 342T194 332Q164 332 139 342T94 370T64 415T53 474Q53 507 64 533T94 577T138 606T194 616Q223 616 249 606T294 578T324 533T335 474ZM124 474Q124 435
143 414T194 392Q225 392 244 413T264 474Q264 513 245 534T194 556Q163 556 144 535T124 474ZM554 616Q577 613 590 605T604 582Q604 572 600 563T588 542L221 -7Q199 -5 185 4T171 28Q171 42 186 65L554 616ZM719 135Q719 102 708 76T678 31T634 2T578 -8Q549
-8 523 2T478 30T448 75T437 135Q437 167 448 193T478 237T523 266T578 276Q608 276 633 266T678 238T708 193T719 135ZM508 135Q508 95 527 74T578 52Q609 52 628 73T648 135Q648 173 629 194T578 216Q547 216 528 195T508 135Z" />
<glyph unicode="&amp;" glyph-name="ampersand" horiz-adv-x="637" d="M565 -14Q554 -14 545 -8T525 9L474 62Q441 27 393 6T279 -15Q227 -15 185 -1T113 40T67 103T50 187Q50 257 87 303T181 371Q157 399 145 426T133 485Q133 547 174 584T292 621Q345 621 372
606T400 568Q400 556 394 547T379 532Q363 541 342 547T297 553Q259 553 237 535T215 484Q215 453 231 429T277 374L465 178Q479 210 486 254T494 353Q503 357 512 359T531 362Q571 362 571 317Q571 266 558 214T521 120L609 29Q603 -14 565 -14ZM280 53Q315 53
353 67T424 114L230 317Q211 311 193 301T162 274T140 235T131 186Q131 126 170 90T280 53Z" />
<glyph unicode="&apos;" glyph-name="quotesingle" horiz-adv-x="139" d="M103 418Q96 416 88 414T70 412Q39 412 37 441L31 615Q39 620 48 622T71 625Q109 625 109 585Q109 572 109 551T107 507T105 460T103 418Z" />
<glyph unicode="(" glyph-name="parenleft" horiz-adv-x="254" d="M204 -116Q188 -116 175 -105T148 -73Q103 -9 79 76T55 274Q55 386 83 472T148 615Q174 657 204 657Q218 657 228 649T244 629Q190 560 161 471T131 274Q131 167 157 81T244 -87Q239 -99 229 -107T204
-116Z" />
<glyph unicode=")" glyph-name="parenright" horiz-adv-x="254" d="M50 -116Q36 -116 26 -108T10 -87Q70 -5 96 81T123 274Q123 381 94 470T10 629Q15 641 25 649T50 657Q80 657 106 615Q143 559 171 473T199 274Q199 162 175 77T106 -73Q92 -93 79 -104T50 -116Z" />
<glyph unicode="*" glyph-name="asterisk" horiz-adv-x="299" d="M50 579Q55 579 60 577T71 573L124 546L121 640Q126 643 134 646T152 649Q165 649 173 643T182 623Q182 616 180 591T177 544L254 588Q263 584 271 575T279 553Q279 541 272 535T254 524L195 496L258
421Q256 408 246 399T223 390Q212 390 203 398T187 416L151 466L100 391Q95 390 87 390Q67 390 58 398T49 419Q49 434 61 446L107 498L23 526Q20 536 20 547Q20 561 28 570T50 579Z" />
<glyph unicode="+" glyph-name="plus" horiz-adv-x="548" d="M312 332H490Q492 326 494 318T497 301Q497 266 462 266H312V73Q304 70 297 68T278 66Q258 66 249 75T239 106V266H58Q55 273 53 280T51 298Q51 332 86 332H239V521Q247 524 255 526T276 528Q295 528
303 519T312 488V332Z" />
<glyph unicode="," glyph-name="comma" horiz-adv-x="145" d="M68 -94Q60 -108 51 -114T29 -121Q7 -121 -7 -104Q0 -85 8 -60T24 -7T39 47T50 94Q58 98 67 100T88 103Q106 103 116 95T126 66Q126 49 120 26T104 -20T85 -64T68 -94Z" />
<glyph unicode="-" glyph-name="hyphen" horiz-adv-x="389" d="M61 228Q58 235 56 242T54 260Q54 294 89 294H328Q330 288 332 280T335 263Q335 228 300 228H61Z" />
<glyph unicode="." glyph-name="period" horiz-adv-x="141" d="M16 42Q16 66 30 82T71 98Q97 98 111 82T125 42Q125 19 111 3T71 -13Q45 -13 31 3T16 42Z" />
<glyph unicode="/" glyph-name="slash" horiz-adv-x="305" d="M89 -105Q83 -106 77 -106T63 -107Q24 -107 24 -71Q24 -60 28 -45T34 -21L218 705Q224 706 230 706T244 707Q261 707 272 699T283 671Q283 660 280 647T274 621L89 -105Z" />
<glyph unicode="0" glyph-name="zero" horiz-adv-x="583" d="M447 304Q447 371 435 418T401 495T352 538T291 552Q259 552 231 538T182 493T149 416T136 304Q136 183 176 119T291 55Q366 55 406 119T447 304ZM291 -13Q238 -13 195 6T120 65T71 164T54 304Q54 390
74 450T127 548T202 603T291 620Q337 620 380 603T456 547T509 449T529 304Q529 224 512 165T464 66T388 7T291 -13Z" />
<glyph unicode="1" glyph-name="one" horiz-adv-x="357" d="M45 470Q32 475 24 485T15 510Q15 526 23 536T51 554L191 615H210Q230 615 242 603T254 571V-1Q248 -3 238 -5T216 -8Q173 -8 173 29V530L45 470Z" />
<glyph unicode="2" glyph-name="two" horiz-adv-x="508" d="M57 545Q57 558 70 571T107 596T161 613T227 620Q324 620 378 573T433 446Q433 419 426 393T403 339T361 281T298 217L135 66H432Q436 61 439 53T442 34Q442 0 411 0H58Q38 14 38 40Q38 69 62 92L242
265Q272 294 293 318T326 363T344 404T350 445Q350 493 318 522T221 552Q176 552 142 537T85 505Q74 510 66 520T57 545Z" />
<glyph unicode="3" glyph-name="three" horiz-adv-x="506" d="M217 621Q264 621 303 611T370 579T413 527T429 455Q429 425 419 402T395 361T363 334T333 321Q353 315 373 303T409 272T436 228T447 170Q447 125 431 91T384 35T312 1T220 -11Q179 -11 145 -5T85
13T46 39T32 68Q32 82 39 92T59 109Q85 89 122 73T220 57Q286 57 327 85T368 172Q368 223 330 254T220 285H137Q133 290 130 299T127 319Q127 330 130 339T137 353H213Q287 353 318 380T350 453Q350 502 315 527T216 553Q168 553 132 539T71 507Q61 512 53 522T45
547Q45 560 58 573T94 597T149 614T217 621Z" />
<glyph unicode="4" glyph-name="four" horiz-adv-x="548" d="M323 609Q332 611 343 612T364 614Q385 614 402 604T419 565V215H519Q522 210 525 202T528 182Q528 148 497 148H419V-2Q414 -4 405 -6T384 -8Q341 -8 341 27V148H52Q42 153 35 165T27 195Q27 204 28
210T32 223L323 609ZM344 530H342L120 215H342L344 530Z" />
<glyph unicode="5" glyph-name="five" horiz-adv-x="538" d="M454 608Q457 603 460 595T463 576Q463 559 455 550T432 540H176L160 360Q177 369 207 377T272 386Q317 386 355 373T423 336T468 275T485 190Q485 146 470 109T426 45T355 3T258 -13Q215 -13 180 -6T119
14T81 40T67 69Q67 85 77 96T99 113Q121 93 161 74T258 54Q327 54 365 92T403 190Q403 251 364 285T262 319Q227 319 198 308T144 283Q117 285 101 299T84 337Q84 343 84 352T86 371L103 562Q105 583 116 595T148 608H454V608Z" />
<glyph unicode="6" glyph-name="six" horiz-adv-x="550" d="M455 561Q455 549 449 539T432 523Q410 534 383 542T323 551Q284 551 251 537T192 495T151 423T135 320Q145 330 160 341T196 362T243 378T299 385Q343 385 380 373T444 335T486 273T501 187Q501 140
486 103T443 41T376 1T288 -13Q238 -13 195 3T121 56T72 148T54 285Q54 379 77 443T137 546T223 603T321 620Q347 620 371 616T414 605T444 586T455 561ZM288 54Q346 54 383 89T420 189Q420 254 383 285T290 317Q236 317 197 295T135 241Q136 157 175 106T288 54Z"
/>
<glyph unicode="7" glyph-name="seven" horiz-adv-x="458" d="M415 608Q438 595 438 568Q438 548 427 526L176 -4Q170 -5 165 -5T153 -5Q133 -5 120 4T106 31Q106 43 110 54T123 81L349 540H33Q30 545 27 553T24 572Q24 589 32 598T55 608H415Z" />
<glyph unicode="8" glyph-name="eight" horiz-adv-x="569" d="M59 161Q59 192 68 217T94 261T131 294T175 317Q127 335 101 369T74 455Q74 493 89 523T132 575T199 608T285 620Q383 620 439 576T496 453Q496 400 466 367T389 317Q414 308 436 294T474 261T500
217T510 160Q510 119 494 87T448 33T377 -1T285 -13Q182 -13 121 32T59 161ZM430 163Q430 217 389 250T275 292Q213 281 176 248T139 162Q139 111 177 83T285 54Q351 54 390 81T430 163ZM154 454Q154 426 165 407T195 374T241 354T297 343Q357 358 386 384T416
453Q416 501 381 527T285 553Q225 553 190 526T154 454Z" />
<glyph unicode="9" glyph-name="nine" horiz-adv-x="552" d="M82 49Q82 61 88 72T105 88Q124 77 154 67T227 56Q266 56 300 68T361 107T402 177T417 284Q410 276 397 266T365 246T320 230T264 223Q222 223 183 234T115 268T69 328T51 418Q51 465 67 502T112 566T179
606T262 620Q313 620 356 603T431 549T480 456T498 323Q498 231 479 167T424 63T338 5T228 -13Q198 -13 172 -9T125 3T94 22T82 49ZM275 290Q300 290 322 296T364 314T396 340T417 370Q415 455 375 504T262 553Q206 553 169 518T132 420Q132 385 143 361T173 321T219
298T275 290Z" />
<glyph unicode=":" glyph-name="colon" horiz-adv-x="189" d="M40 392Q40 416 54 432T94 448Q120 448 134 432T149 392Q149 368 135 353T94 337Q68 337 54 352T40 392ZM40 42Q40 66 54 82T94 98Q120 98 134 82T149 42Q149 19 135 3T94 -13Q68 -13 54 3T40 42Z" />
<glyph unicode=";" glyph-name="semicolon" horiz-adv-x="202" d="M46 392Q46 416 60 432T100 448Q126 448 140 432T155 392Q155 368 141 353T100 337Q74 337 60 352T46 392ZM89 -94Q81 -108 72 -114T50 -121Q28 -121 14 -104Q21 -85 29 -60T45 -7T60 47T71 94Q79
98 88 100T109 103Q127 103 137 95T147 66Q147 49 141 26T125 -20T106 -64T89 -94Z" />
<glyph unicode="&lt;" glyph-name="less" horiz-adv-x="473" d="M440 141Q441 136 441 132T441 123Q441 108 431 98T404 88Q390 88 369 101L64 267Q54 282 54 300Q54 328 71 338L405 509Q438 497 438 471Q438 454 428 445T402 425L132 301L440 141Z" />
<glyph unicode="=" glyph-name="equal" horiz-adv-x="518" d="M58 363Q51 377 51 394Q51 428 86 428H460Q462 422 464 415T466 397Q466 363 431 363H58ZM58 161Q51 175 51 192Q51 226 86 226H460Q462 220 464 212T466 195Q466 161 431 161H58Z" />
<glyph unicode="&gt;" glyph-name="greater" horiz-adv-x="460" d="M33 459Q32 464 32 468T32 477Q32 491 41 501T68 512Q76 512 84 509T103 500L399 334Q409 319 409 300Q409 285 405 276T392 262L68 92Q51 97 43 107T35 130Q35 146 44 156T71 175L331 302L33 459Z" />
<glyph unicode="?" glyph-name="question" horiz-adv-x="459" d="M115 200Q95 220 95 244Q95 258 103 267T131 281L200 299Q266 316 301 349T337 437Q337 485 303 519T195 554Q155 554 115 542T50 509Q27 526 27 552Q27 567 39 580T75 603T129 619T198 625Q247
625 288 611T358 573T404 514T420 438Q420 353 369 302T213 224L115 200ZM104 45Q104 69 119 85T160 102Q186 102 201 86T217 45Q217 21 202 5T160 -11Q134 -11 119 5T104 45Z" />
<glyph unicode="@" glyph-name="at" horiz-adv-x="1000" d="M667 79Q678 71 692 66T726 61Q759 61 783 76T824 118T849 184T857 267Q857 338 833 397T765 498T657 563T516 587Q429 587 358 560T238 482T161 361T134 204Q134 122 159 56T231 -58T342 -130T486 -156Q524
-156 553 -152T602 -141Q615 -154 615 -172Q615 -195 586 -208T480 -221Q385 -221 307 -191T172 -106T86 27T55 204Q55 305 87 388T180 529T325 620T515 652Q613 652 691 625T823 546T907 424T936 266Q936 136 883 66T726 -5Q695 -5 665 5T611 34Q590 19 561 10T492
0Q448 0 413 13T352 52T312 115T298 200Q298 254 314 296T361 368T433 413T528 429Q563 429 596 421T652 401Q693 380 693 352Q693 345 693 337T691 322L667 79ZM380 200Q380 135 412 101T503 66Q551 66 589 96L614 344Q598 352 575 357T523 363Q459 363 420 321T380
200Z" />
<glyph unicode="A" glyph-name="A" horiz-adv-x="592" d="M428 162H160Q153 142 145 119T130 73T115 31T104 -2Q90 -8 71 -8Q55 -8 43 0T30 28Q30 37 33 46T40 67Q55 109 78 175T129 315T185 465T238 601Q246 605 262 609T295 613Q315 613 333 607T357 587Q381
529 408 455T464 302T517 149T563 12Q555 3 544 -2T519 -8Q500 -8 490 0T473 29L428 162ZM294 545Q283 515 269 477T240 396T210 311T182 229H407Q392 274 376 319T346 407T319 484T298 545H294Z" />
<glyph unicode="B" glyph-name="B" horiz-adv-x="599" d="M516 455Q516 412 496 376T427 319Q484 300 512 260T540 168Q540 77 475 33T288 -11Q246 -11 207 -8T131 6Q89 18 89 52V564Q89 593 122 602Q156 612 194 615T277 619Q390 619 453 579T516 455ZM169 283V67Q193
62 224 59T288 56Q371 56 414 83T457 170Q457 222 419 252T305 283H169ZM169 349H305Q368 349 400 377T433 453Q433 552 277 552Q242 552 217 550T169 543V349Z" />
<glyph unicode="C" glyph-name="C" horiz-adv-x="588" d="M533 541Q533 527 525 517T505 502Q479 520 444 536T353 552Q307 552 268 536T200 489T155 411T138 303Q138 241 154 195T198 118T267 72T356 56Q408 56 446 70T511 105Q521 101 530 91T539 66Q539 45
515 28Q492 12 452 0T350 -13Q287 -13 233 7T140 66T77 165T54 303Q54 382 77 441T141 541T234 601T347 621Q388 621 422 614T481 596T519 570T533 541Z" />
<glyph unicode="D" glyph-name="D" horiz-adv-x="652" d="M515 311Q515 375 496 420T443 495T365 537T269 551Q237 551 214 549T170 543V67Q194 61 221 59T278 57Q396 57 455 121T515 311ZM598 311Q598 229 576 169T512 68T411 9T279 -11Q247 -11 207 -9T131 5Q89
18 89 51V565Q89 581 97 589T122 603Q153 613 192 616T270 619Q343 619 403 600T507 542T574 446T598 311Z" />
<glyph unicode="E" glyph-name="E" horiz-adv-x="531" d="M133 0Q113 0 101 12T89 44V564Q89 584 101 596T133 608H465Q468 603 471 595T474 576Q474 559 466 549T443 539H170V346H434Q437 341 440 333T443 314Q443 297 435 288T412 278H170V68H470Q473 63 476
55T479 36Q479 19 471 10T448 0H133V0Z" />
<glyph unicode="F" glyph-name="F" horiz-adv-x="517" d="M465 608Q468 603 471 595T474 576Q474 559 466 549T443 539H171V331H430Q433 326 436 318T439 299Q439 282 431 272T408 262H171V1Q166 -1 156 -3T134 -5Q89 -5 89 31V564Q89 584 101 596T133 608H465Z" />
<glyph unicode="G" glyph-name="G" horiz-adv-x="639" d="M570 70Q570 52 560 40T528 17Q503 5 459 -4T370 -13Q300 -13 242 6T142 64T77 162T54 303Q54 383 78 443T143 542T240 601T357 621Q399 621 434 614T495 596T534 570T548 542Q548 528 540 518T521 503Q494
521 457 536T362 552Q314 552 273 536T202 489T155 411T138 303Q138 238 155 192T204 115T278 71T371 56Q407 56 439 62T489 77V261H338Q335 266 332 274T329 293Q329 310 337 319T360 329H527Q545 329 557 318T570 287V70Z" />
<glyph unicode="H" glyph-name="H" horiz-adv-x="654" d="M565 2Q559 0 549 -2T527 -5Q483 -5 483 32V274H171V2Q165 0 155 -2T133 -5Q89 -5 89 32V606Q94 608 104 610T127 613Q171 613 171 576V342H483V606Q488 608 498 610T521 613Q565 613 565 576V2V2Z" />
<glyph unicode="I" glyph-name="I" horiz-adv-x="262" d="M171 2Q166 0 156 -2T134 -5Q90 -5 90 32V606Q95 608 105 610T128 613Q171 613 171 576V2V2Z" />
<glyph unicode="J" glyph-name="J" horiz-adv-x="385" d="M215 606Q220 608 230 610T252 613Q296 613 296 576V148Q296 103 283 73T248 24T196 -3T134 -11Q77 -11 51 2T25 38Q25 52 31 62T42 77Q57 70 78 64T122 58Q167 58 191 79T215 152V606V606Z" />
<glyph unicode="K" glyph-name="K" horiz-adv-x="566" d="M171 290V1Q165 -1 155 -3T133 -6Q89 -6 89 31V606Q94 608 104 610T127 613Q171 613 171 576V327L446 612Q472 611 485 599T498 571Q498 558 491 547T471 523L255 311Q346 222 412 153T527 40Q525 18 514
6T484 -7Q467 -7 454 2T426 26L171 290Z" />
<glyph unicode="L" glyph-name="L" horiz-adv-x="501" d="M133 0Q114 0 102 12T89 44V606Q94 608 104 610T127 613Q171 613 171 576V70H458Q469 59 469 37Q469 20 460 10T436 0H133V0Z" />
<glyph unicode="M" glyph-name="M" horiz-adv-x="780" d="M435 158Q428 153 417 149T391 145Q375 145 363 150T345 166Q291 278 252 371T189 525H185Q182 450 179 386T171 260T163 135T155 0Q149 -2 140 -4T119 -6Q97 -6 88 3T79 29Q79 39 80 72T85 152T91 256T99
372T108 488T117 592Q125 599 140 605T174 611Q220 611 238 574Q257 535 276 492T315 403T353 314T389 230H393Q415 283 437 334T480 434T520 524T554 601Q563 606 577 608T603 611Q650 611 657 579Q661 561 666 520T676 424T685 308T694 189T701 83T706 6Q688
-6 664 -6Q649 -6 638 1T624 29Q619 102 615 174T608 311T601 430T596 523H592Q581 495 567 460T533 381T489 282T435 158Z" />
<glyph unicode="N" glyph-name="N" horiz-adv-x="660" d="M133 -5Q89 -5 89 31V596Q107 614 143 614Q167 614 184 605T215 570L406 250Q418 229 431 206T456 159T478 115T496 80L500 81Q492 162 491 244T489 404V606Q495 608 505 610T527 613Q571 613 571 577V11Q562
3 548 -1T517 -6Q493 -6 476 3T445 38L255 358Q243 378 230 402T204 449T181 493T163 528L159 527Q164 479 167 418T170 301V2Q165 0 155 -2T133 -5Z" />
<glyph unicode="O" glyph-name="O" horiz-adv-x="689" d="M634 304Q634 226 612 167T551 68T459 8T344 -13Q282 -13 229 7T137 67T76 166T54 304Q54 382 76 441T138 540T230 600T344 621Q405 621 458 601T550 540T611 441T634 304ZM551 304Q551 424 495 488T344
552Q297 552 259 536T194 488T153 410T138 304Q138 184 194 120T344 56Q439 56 495 120T551 304Z" />
<glyph unicode="P" glyph-name="P" horiz-adv-x="567" d="M171 217V2Q165 0 155 -2T133 -5Q89 -5 89 32V564Q89 580 97 588T122 602Q151 611 192 615T273 619Q400 619 458 566T517 421Q517 328 457 273T272 217H171ZM267 285Q347 285 391 318T435 420Q435 488
393 519T271 551Q244 551 218 549T170 542V285H267Z" />
<glyph unicode="Q" glyph-name="Q" horiz-adv-x="690" d="M634 304Q634 182 582 106T445 2Q482 -18 510 -32T563 -58T610 -78T658 -96Q660 -103 660 -107T660 -116Q660 -135 649 -146T616 -158Q584 -158 533 -131T415 -58L349 -13H344Q282 -13 229 7T137 67T76
166T54 304Q54 382 76 441T138 540T230 600T344 621Q405 621 458 601T550 540T611 441T634 304ZM551 304Q551 424 495 488T344 552Q297 552 259 536T194 488T153 410T138 304Q138 184 194 120T344 56Q439 56 495 120T551 304Z" />
<glyph unicode="R" glyph-name="R" horiz-adv-x="589" d="M171 2Q165 0 155 -2T133 -5Q89 -5 89 32V564Q89 580 97 588T122 602Q151 611 193 615T276 619Q402 619 463 569T525 425Q525 356 490 309T382 242Q407 210 432 178T479 118T519 66T547 30Q543 13 530
3T502 -7Q485 -7 474 1T451 26L305 230H171V2ZM285 298Q359 298 401 330T443 425Q443 488 399 519T273 551Q246 551 219 549T170 542V298H285Z" />
<glyph unicode="S" glyph-name="S" horiz-adv-x="523" d="M257 55Q324 55 358 85T393 164Q393 206 367 232T283 275L196 301Q132 320 96 357T59 457Q59 495 73 525T115 577T179 609T264 621Q304 621 338 615T398 597T438 571T452 542Q452 528 445 518T427 502Q401
522 360 537T267 552Q208 552 175 527T141 457Q141 422 165 400T245 362L306 344Q385 321 430 280T476 164Q476 85 419 36T257 -13Q211 -13 174 -5T110 16T69 44T54 75Q54 92 64 103T89 120Q100 109 116 98T153 77T200 61T257 55Z" />
<glyph unicode="T" glyph-name="T" horiz-adv-x="523" d="M302 539V2Q297 0 287 -2T265 -5Q221 -5 221 32V539H34Q31 544 28 552T25 572Q25 589 33 598T56 608H489Q492 603 495 595T498 576Q498 559 490 549T467 539H302Z" />
<glyph unicode="U" glyph-name="U" d="M561 210Q561 159 546 118T500 48T425 3T324 -13Q267 -13 223 3T149 48T104 118T88 210V606Q93 608 103 610T126 613Q169 613 169 576V217Q169 177 181 147T213 97T262 66T324 56Q357 56 385 66T434 96T467 147T479 217V606Q484
608 494 610T517 613Q561 613 561 576V210V210Z" />
<glyph unicode="V" glyph-name="V" horiz-adv-x="583" d="M347 8Q342 3 328 -1T297 -5Q278 -5 263 0T243 17Q230 43 213 84T176 175T136 282T96 393T60 499T31 592Q37 600 49 607T76 614Q95 614 104 605T119 578Q164 447 205 325T295 77H299Q321 134 344 198T390
331T434 470T473 607Q486 614 507 614Q525 614 536 605T547 578Q547 563 536 522T506 425T466 307T421 186T379 80T347 8Z" />
<glyph unicode="W" glyph-name="W" horiz-adv-x="803" d="M359 457Q367 461 378 464T404 467Q446 467 455 441Q473 387 489 339T520 247T549 159T577 70H581Q595 137 609 201T636 331T661 464T684 607Q698 614 718 614Q737 614 748 606T759 580Q759 561 754 522T739
433T717 324T690 209T662 100T635 11Q626 6 612 2T580 -3Q558 -3 543 4T523 23Q512 49 498 88T469 175T437 274T406 377Q391 327 375 274T344 172T313 80T286 10Q278 5 264 1T232 -3Q209 -3 195 4T176 23Q167 44 156 83T132 171T106 278T80 391T57 500T39 595Q46
602 58 608T84 614Q119 614 126 577Q139 514 151 456T175 337T202 211T233 70H237Q251 115 264 155T291 240T321 336T359 457Z" />
<glyph unicode="X" glyph-name="X" horiz-adv-x="591" d="M293 252L109 -5Q99 -7 89 -7Q69 -7 57 2T45 29Q45 42 51 53T68 78L244 308L49 574Q54 591 65 602T97 614Q113 614 124 605T147 578L295 366L472 611Q477 612 482 612T493 613Q514 613 524 603T535 578Q535
567 530 557T516 535Q474 479 431 423T343 310L544 32Q539 15 528 4T498 -7Q482 -7 472 1T449 27L293 252Z" />
<glyph unicode="Y" glyph-name="Y" horiz-adv-x="550" d="M523 580Q523 569 508 538T466 459T402 352T319 225V2Q314 0 304 -2T282 -5Q238 -5 238 32V225Q210 266 181 312T122 405T67 497T21 582Q25 593 36 603T65 614Q84 614 94 604T116 574Q132 546 153 508T197
431T241 356T277 295H281Q333 382 373 457T454 607Q460 611 468 612T485 614Q523 614 523 580Z" />
<glyph unicode="Z" glyph-name="Z" horiz-adv-x="557" d="M483 608Q491 601 496 591T502 570Q502 556 497 545T481 520L152 69H499Q503 64 506 56T509 36Q509 19 501 10T478 0H69Q61 7 56 17T50 38Q50 52 55 63T71 88L400 539H67Q64 544 61 552T57 572Q57 589
65 598T89 608H483V608Z" />
<glyph unicode="[" glyph-name="bracketleft" horiz-adv-x="268" d="M252 651Q254 645 256 638T258 621Q258 588 224 588H142V-46H252Q254 -53 256 -60T258 -77Q258 -110 224 -110H110Q90 -110 80 -99T69 -69V611Q69 651 110 651H252Z" />
<glyph unicode="\" glyph-name="backslash" horiz-adv-x="341" d="M300 -46Q292 -53 281 -58T258 -64Q230 -64 223 -38L33 647Q41 655 52 660T75 665Q103 665 110 639L300 -46Z" />
<glyph unicode="]" glyph-name="bracketright" horiz-adv-x="269" d="M16 -110Q14 -104 12 -97T10 -80Q10 -46 45 -46H126V588H16Q14 594 12 601T10 618Q10 651 45 651H158Q199 651 199 611V-69Q199 -88 189 -99T158 -110H16Z" />
<glyph unicode="^" glyph-name="asciicircum" horiz-adv-x="463" d="M194 646Q199 650 209 652T230 655Q244 655 253 652T267 641Q281 616 300 578T340 497T379 414T409 343Q404 335 394 330T372 324Q356 324 347 330T329 357L232 573H225Q221 564 209 537T181
475T149 402T123 332Q116 328 108 326T88 323Q74 323 64 329T54 353Q54 360 63 382T86 435T117 500T149 564T177 616T194 646Z" />
<glyph unicode="_" glyph-name="underscore" horiz-adv-x="465" d="M6 -123Q4 -117 2 -110T0 -92Q0 -58 35 -58H458Q460 -64 462 -72T465 -89Q465 -123 430 -123H6Z" />
<glyph unicode="`" glyph-name="grave" horiz-adv-x="302" d="M59 634Q57 644 57 647Q57 663 67 673T95 683Q116 683 130 666L220 553Q219 537 210 528T187 518Q176 518 169 522T153 534L59 634Z" />
<glyph unicode="a" glyph-name="a" horiz-adv-x="499" d="M240 52Q282 52 309 60T349 77V222L225 209Q173 204 148 186T123 131Q123 93 152 73T240 52ZM239 475Q326 475 377 436T428 313V76Q428 54 420 43T394 21Q370 7 331 -3T240 -14Q146 -14 95 23T43 130Q43
196 86 229T207 271L349 285V313Q349 363 319 386T238 409Q196 409 159 397T93 370Q85 377 79 386T72 406Q72 420 79 429T101 446Q128 460 163 467T239 475Z" />
<glyph unicode="b" glyph-name="b" horiz-adv-x="549" d="M281 475Q327 475 367 460T436 415T482 339T499 231Q499 168 482 122T435 46T361 2T267 -13Q218 -13 179 -2T114 25Q93 38 85 50T77 84V648Q82 650 92 652T115 655Q157 655 157 619V440Q179 454 209 464T281
475ZM269 409Q234 409 206 397T157 367V84Q172 73 200 63T267 53Q301 53 328 63T376 96T407 151T418 231Q418 277 407 311T376 366T329 398T269 409Z" />
<glyph unicode="c" glyph-name="c" horiz-adv-x="478" d="M289 408Q255 408 226 397T176 363T143 307T131 230Q131 144 174 99T289 53Q331 53 359 64T409 91Q420 85 427 76T434 54Q434 40 423 28T393 7T347 -7T289 -13Q237 -13 193 2T117 47T67 122T49 230Q49
291 68 336T119 413T194 459T287 475Q318 475 344 470T390 454T419 432T430 406Q430 394 423 385T405 371Q383 386 357 397T289 408Z" />
<glyph unicode="d" glyph-name="d" horiz-adv-x="547" d="M470 76Q470 56 462 45T435 23Q415 10 378 -1T293 -13Q239 -13 194 1T117 44T67 119T49 229Q49 294 67 340T115 417T187 461T276 475Q308 475 338 467T390 447V648Q395 650 405 652T427 655Q470 655 470
619V76ZM390 375Q370 389 344 399T284 409Q253 409 226 400T177 369T144 312T131 227Q131 135 175 94T292 53Q327 53 349 60T390 79V375Z" />
<glyph unicode="e" glyph-name="e" horiz-adv-x="519" d="M132 184Q159 53 304 53Q346 53 380 67T434 97Q458 83 458 59Q458 45 446 32T412 9T362 -7T300 -13Q184 -13 117 50T49 234Q49 291 65 335T111 411T182 458T271 475Q316 475 354 460T419 418T462 353T478
270Q478 248 468 239T440 227L132 184ZM270 410Q209 410 169 368T127 246L402 284Q397 339 364 374T270 410Z" />
<glyph unicode="f" glyph-name="f" horiz-adv-x="399" d="M156 436H354Q357 431 360 423T363 404Q363 371 332 371H157V2Q152 0 142 -2T120 -5Q77 -5 77 31V503Q77 591 124 630T257 670Q314 670 346 655T379 618Q379 596 362 581Q344 591 317 597T265 604Q204
604 180 579T156 499V436Z" />
<glyph unicode="g" glyph-name="g" horiz-adv-x="537" d="M384 48Q367 34 338 24T267 14Q223 14 184 26T116 66T69 138T51 245Q51 302 68 345T115 417T188 460T281 475Q327 475 365 464T430 435Q445 425 454 413T464 382V-20Q464 -70 448 -104T402 -160T332 -192T246
-202Q195 -202 160 -192T111 -173Q81 -156 81 -130Q81 -116 87 -107T104 -92Q125 -108 163 -121T246 -135Q313 -135 348 -107T384 -15V48ZM276 80Q316 80 341 92T384 121V381Q367 392 342 400T281 409Q213 409 173 368T132 246Q132 201 143 170T173 118T219 89T276
80Z" />
<glyph unicode="h" glyph-name="h" horiz-adv-x="551" d="M157 2Q152 0 142 -2T120 -5Q77 -5 77 31V648Q82 650 92 652T115 655Q157 655 157 619V439Q181 453 213 464T287 475Q329 475 363 464T423 431T462 374T476 293V2Q471 0 461 -2T439 -5Q396 -5 396 31V291Q396
351 363 380T276 409Q241 409 211 397T157 366V2V2Z" />
<glyph unicode="i" glyph-name="i" horiz-adv-x="241" d="M160 2Q155 0 145 -2T123 -5Q80 -5 80 31V460Q85 462 95 464T118 467Q160 467 160 430V2ZM68 608Q68 629 82 643T120 658Q143 658 157 644T171 608Q171 587 157 573T120 558Q97 558 83 572T68 608Z" />
<glyph unicode="j" glyph-name="j" horiz-adv-x="243" d="M6 -146Q24 -138 38 -130T62 -109T77 -78T83 -30V460Q88 462 98 464T121 467Q163 467 163 430V-45Q163 -89 151 -117T122 -163T85 -188T52 -195Q27 -195 18 -181T6 -146ZM71 608Q71 629 85 643T123 658Q146
658 160 644T174 608Q174 587 160 573T123 558Q100 558 86 572T71 608Z" />
<glyph unicode="k" glyph-name="k" horiz-adv-x="487" d="M157 2Q152 0 142 -2T120 -5Q77 -5 77 31V648Q82 650 92 652T115 655Q157 655 157 619V259L376 471Q400 470 413 460T427 432Q427 418 418 408T394 383L233 242L456 42Q454 20 443 7T412 -6Q397 -6 385
1T359 23L157 226V2V2Z" />
<glyph unicode="l" glyph-name="l" horiz-adv-x="246" d="M163 2Q158 0 148 -2T126 -5Q83 -5 83 31V648Q88 650 98 652T120 655Q163 655 163 619V2V2Z" />
<glyph unicode="m" glyph-name="m" horiz-adv-x="816" d="M661 314Q661 363 633 386T558 409Q493 409 442 363Q448 343 448 320V2Q443 0 433 -2T411 -5Q368 -5 368 31V314Q368 363 340 386T264 409Q232 409 204 399T155 376V2Q150 0 140 -2T118 -5Q75 -5 75 31V372Q75
392 83 405T113 433Q140 450 181 462T265 475Q314 475 352 461T410 421Q436 444 475 459T564 475Q645 475 693 437T741 318V2Q736 0 726 -2T704 -5Q661 -5 661 31V314V314Z" />
<glyph unicode="n" glyph-name="n" horiz-adv-x="550" d="M395 301Q395 357 364 383T279 409Q239 409 208 399T155 376V2Q150 0 140 -2T118 -5Q75 -5 75 31V372Q75 393 83 406T113 433Q139 449 182 462T279 475Q370 475 422 434T475 305V2Q470 0 460 -2T438 -5Q395
-5 395 31V301V301Z" />
<glyph unicode="o" glyph-name="o" horiz-adv-x="553" d="M504 231Q504 175 488 130T443 53T371 4T277 -13Q225 -13 183 4T111 53T65 130T49 231Q49 287 65 332T112 409T184 458T277 475Q328 475 370 458T441 409T487 332T504 231ZM277 409Q209 409 170 362T131
231Q131 146 169 100T277 53Q346 53 384 100T422 231Q422 315 384 362T277 409Z" />
<glyph unicode="p" glyph-name="p" horiz-adv-x="546" d="M272 -13Q237 -13 206 -5T155 14V-180Q150 -182 140 -184T118 -187Q75 -187 75 -150V378Q75 398 82 410T111 435Q138 450 175 462T261 475Q310 475 353 461T428 418T478 342T497 232Q497 170 481 124T434
48T363 2T272 -13ZM261 53Q331 53 373 95T416 232Q416 281 404 315T370 370T320 400T261 409Q225 409 200 400T155 380V85Q174 71 200 62T261 53Z" />
<glyph unicode="q" glyph-name="q" horiz-adv-x="546" d="M471 -183Q466 -185 456 -187T434 -190Q391 -190 391 -153V16Q371 4 343 -4T275 -13Q226 -13 185 1T113 44T66 119T49 228Q49 291 67 337T117 414T192 460T286 475Q334 475 373 463T438 435Q453 426 462
413T471 382V-183ZM287 53Q319 53 346 62T391 87V381Q374 392 349 400T288 409Q256 409 228 399T178 367T144 311T131 228Q131 136 173 95T287 53Z" />
<glyph unicode="r" glyph-name="r" horiz-adv-x="382" d="M155 2Q150 0 140 -2T118 -5Q75 -5 75 31V370Q75 393 83 406T112 433Q138 450 182 462T283 475Q363 475 363 435Q363 425 360 417T352 402Q342 404 326 406T294 408Q248 408 213 399T155 376V2Z" />
<glyph unicode="s" glyph-name="s" horiz-adv-x="447" d="M401 123Q401 59 354 23T218 -13Q180 -13 148 -7T94 10T59 34T46 62Q46 74 52 85T72 104Q99 84 135 69T217 53Q321 53 321 123Q321 180 252 197L169 219Q108 235 80 265T52 344Q52 370 62 394T95 436T149
464T226 475Q296 475 339 455T382 407Q382 394 376 384T358 369Q340 381 307 395T229 409Q184 409 158 392T131 344Q131 321 146 305T196 281L265 264Q333 247 367 214T401 123Z" />
<glyph unicode="t" glyph-name="t" horiz-adv-x="372" d="M233 -13Q163 -13 120 18T76 121V596Q81 598 91 600T114 603Q156 603 156 567V452H320Q323 447 326 439T329 420Q329 386 299 386H156V126Q156 86 178 70T242 53Q259 53 280 59T315 73Q321 67 326 58T331
37Q331 15 305 1T233 -13Z" />
<glyph unicode="u" glyph-name="u" horiz-adv-x="550" d="M75 460Q80 462 90 464T113 467Q155 467 155 430V173Q155 108 189 81T283 53Q323 53 351 61T395 79V460Q400 462 410 464T432 467Q475 467 475 430V82Q475 61 470 49T443 24Q420 11 380 -1T282 -13Q182
-13 129 31T75 169V460Z" />
<glyph unicode="v" glyph-name="v" horiz-adv-x="495" d="M421 471Q438 471 448 462T459 436Q459 425 451 398T430 333T401 250T366 161T329 75T294 4Q289 0 277 -3T250 -6Q213 -6 202 15Q193 32 179 62T149 130T116 211T83 296T53 378T30 449Q37 459 49 465T73
471Q91 471 100 462T118 432L180 253Q186 236 195 212T213 162T232 112T248 71H252Q292 172 326 270T387 463Q400 471 421 471Z" />
<glyph unicode="w" glyph-name="w" horiz-adv-x="729" d="M366 344Q352 297 338 249T308 157T279 74T253 5Q245 0 235 -3T208 -6Q192 -6 179 -1T160 17Q148 42 132 95T98 211T65 339T39 452Q46 459 56 465T82 471Q101 471 110 461T124 427Q133 385 145 332T169
227T191 134T207 72H211Q217 90 228 126T255 208T288 309T324 417Q342 427 367 427Q404 427 413 401Q431 349 447 298T478 202T502 124T518 71H523Q546 161 573 262T617 462Q631 471 651 471Q668 471 678 463T688 438Q688 427 682 396T664 323T640 234T612 142T586
61T564 5Q559 1 548 -2T521 -6Q502 -6 490 -2T473 13Q462 40 450 77T423 157T395 249T366 344Z" />
<glyph unicode="x" glyph-name="x" horiz-adv-x="482" d="M61 72Q92 114 126 154T194 236Q152 287 116 332T42 427Q46 447 56 458T84 469Q101 469 110 461T131 438Q157 403 184 364T242 285Q279 332 312 374T380 468Q385 469 391 469Q412 469 424 460T436 434Q436
423 432 413T417 390Q386 352 354 313T289 235Q328 184 367 135T446 35Q444 16 433 5T404 -6Q387 -6 377 2T352 29Q325 65 297 105T240 184Q205 138 170 90T101 -5H87Q64 -5 53 5T41 30Q41 38 44 46T61 72Z" />
<glyph unicode="y" glyph-name="y" horiz-adv-x="489" d="M169 103Q156 127 139 164T104 247T66 344T30 449Q37 459 48 465T73 471Q90 471 100 462T119 432Q149 347 181 265T255 93H259Q275 124 292 168T325 263T356 364T382 463Q389 466 397 468T416 471Q433
471 444 463T455 437Q455 417 441 364T405 245T353 110T294 -14Q247 -99 210 -144T140 -190Q117 -190 105 -178T89 -150Q105 -136 125 -114T165 -67T203 -14T233 38Q216 43 202 55T169 103Z" />
<glyph unicode="z" glyph-name="z" horiz-adv-x="469" d="M61 0Q45 13 45 35Q45 47 50 57T63 78L317 396H60Q57 401 54 409T51 429Q51 462 81 462H401Q418 448 418 426Q418 406 399 384L145 65H416Q419 60 422 52T425 33Q425 0 394 0H61V0Z" />
<glyph unicode="{" glyph-name="braceleft" horiz-adv-x="281" d="M122 275Q155 258 173 224T192 136V5Q192 -30 205 -44T248 -60Q251 -72 251 -83Q251 -97 242 -106T215 -115Q173 -115 147 -85T120 5V128Q120 232 44 244Q40 249 39 258T37 275Q37 282 39 291T44
306Q120 318 120 421V537Q120 597 146 626T215 656Q251 656 251 624Q251 613 248 601Q219 601 206 587T192 536V414Q192 360 174 326T122 275Z" />
<glyph unicode="|" glyph-name="bar" horiz-adv-x="251" d="M162 -180Q154 -183 146 -185T127 -187Q107 -187 98 -178T89 -147V674Q97 677 105 679T124 681Q144 681 153 672T162 641V-180Z" />
<glyph unicode="}" glyph-name="braceright" horiz-adv-x="281" d="M159 275Q126 292 108 326T89 414V536Q89 572 76 586T33 601Q30 613 30 624Q30 656 66 656Q108 656 134 627T161 537V421Q161 318 237 306Q240 300 242 291T244 275Q244 268 243 259T237 244Q161
232 161 128V5Q161 -55 135 -85T66 -115Q48 -115 39 -106T30 -83Q30 -72 33 -60Q62 -59 75 -45T89 5V136Q89 189 107 223T159 275Z" />
<glyph unicode="~" glyph-name="asciitilde" horiz-adv-x="448" d="M312 282Q338 282 350 296T370 327Q392 327 407 315T423 283Q423 251 397 232T329 213Q299 213 273 219T222 233T177 247T136 254Q109 254 98 240T78 209Q55 209 40 221T25 253Q25 285 51 304T119
323Q150 323 176 317T226 303T271 289T312 282Z" />
<glyph unicode="&#xa0;" glyph-name="uni00A0" horiz-adv-x="200" />
<glyph unicode="&#xa1;" glyph-name="exclamdown" horiz-adv-x="250" d="M86 -126Q86 -96 86 -47T88 57T92 169T96 269Q109 279 129 279Q143 279 152 273T162 254Q164 225 166 173T169 62T170 -55T171 -156Q150 -169 126 -169Q86 -169 86 -126ZM184 411Q184 387
169 371T128 355Q102 355 87 371T72 411Q72 435 87 451T128 467Q154 467 169 451T184 411Z" />
<glyph unicode="&#xa2;" glyph-name="cent" horiz-adv-x="476" d="M289 408Q255 408 226 397T176 363T143 307T131 230Q131 144 174 99T289 53Q331 53 359 64T409 91Q420 85 427 76T434 54Q434 28 398 10T306 -12V-108Q301 -110 293 -111T274 -113Q233 -113 233
-80V-8Q151 6 100 64T49 230Q49 282 63 323T101 395T160 443T233 470V571Q238 573 246 574T266 576Q306 576 306 543V474Q361 471 395 451T430 406Q430 394 423 385T404 371Q383 386 357 397T289 408Z" />
<glyph unicode="&#xa3;" glyph-name="sterling" horiz-adv-x="504" d="M145 219Q145 237 142 263H85Q74 263 66 270T57 296Q57 306 60 313T65 328H136Q133 353 132 376T130 418Q130 472 146 510T189 573T253 609T332 621Q364 621 388 616T427 601T451 581T459
560Q459 552 454 541T436 522Q414 537 392 545T337 553Q210 553 210 407Q210 390 211 370T214 328H405Q408 321 410 314T413 296Q413 278 405 271T384 263H220Q223 236 223 217Q223 163 209 127T168 66H461Q469 52 469 33Q469 17 461 9T440 0H100Q81 0 68 11T54
45Q54 50 54 52T55 60Q77 71 94 84T122 116T139 159T145 219Z" />
<glyph unicode="&#xa4;" glyph-name="currency" horiz-adv-x="525" d="M447 298Q447 260 437 230T407 177L465 109Q457 90 445 81T418 72Q406 72 395 83T373 107L350 134Q312 115 262 115Q214 115 175 133L121 64Q101 68 87 78T73 107Q73 119 79 131T97 155L116
177Q77 224 77 298Q77 335 87 364T115 417L60 483Q68 501 80 510T107 519Q120 519 131 508T152 485L172 460Q212 480 262 480Q313 480 354 459L407 527Q426 523 440 513T454 485Q454 472 448 461T430 436L411 413Q428 390 437 362T447 298ZM373 298Q373 355 343
386T262 418Q211 418 181 387T150 298Q150 240 180 209T262 178Q312 178 342 209T373 298Z" />
<glyph unicode="&#xa5;" glyph-name="yen" horiz-adv-x="546" d="M59 280Q49 292 49 312Q49 329 56 335T74 342H192Q170 375 148 409T105 475T68 538T37 592Q44 601 55 609T81 618Q98 618 108 609T130 578L273 345H278Q302 382 320 413T356 475T391 538T432 610Q441
615 448 616T466 618Q484 618 492 609T501 586Q501 578 489 554T456 496T411 422T360 342H489Q492 334 494 327T497 310Q497 296 490 288T472 280H59ZM316 148V1Q311 -1 301 -3T279 -5Q234 -5 234 31V148H59Q49 160 49 180Q49 198 56 204T73 210H487Q490 205 492
196T495 178Q495 164 488 156T471 148H316Z" />
<glyph unicode="&#xa6;" glyph-name="brokenbar" horiz-adv-x="293" d="M162 310Q154 307 146 305T127 303Q107 303 98 312T89 343V675Q97 678 105 680T124 682Q144 682 153 673T162 642V310ZM162 -180Q154 -183 146 -185T127 -187Q107 -187 98 -178T89 -147V185Q97
188 105 190T124 192Q144 192 153 183T162 152V-180Z" />
<glyph unicode="&#xa7;" glyph-name="section" horiz-adv-x="504" d="M444 283Q444 248 429 224T390 182Q416 166 430 143T444 85Q444 23 395 -11T248 -45Q207 -45 173 -39T114 -23T74 1T60 30Q60 44 67 53T85 71Q119 50 158 35T248 20Q304 20 334 36T365 85Q365
112 346 125T282 149L191 169Q137 180 100 209T63 298Q63 332 78 356T117 397Q94 411 81 434T67 494Q67 555 113 588T245 621Q281 621 312 616T365 602T401 581T414 555Q414 542 408 533T393 518Q366 532 329 544T247 556Q199 556 173 541T146 494Q146 466 164
453T216 433L306 415Q337 407 362 397T406 371T434 335T444 283ZM307 212L321 208Q341 220 353 238T365 282Q365 311 346 327T281 352L191 370Q187 370 183 372Q164 360 153 342T141 300Q141 271 161 255T215 232L307 212Z" />
<glyph unicode="&#xa8;" glyph-name="dieresis" horiz-adv-x="374" d="M154 606Q154 586 140 572T104 558Q83 558 70 572T56 606Q56 626 69 640T104 654Q126 654 140 640T154 606ZM327 606Q327 586 313 572T277 558Q257 558 243 572T228 606Q228 626 242 640T277
654Q298 654 312 640T327 606Z" />
<glyph unicode="&#xa9;" glyph-name="copyright" horiz-adv-x="713" d="M54 298Q54 363 75 420T137 519T232 585T355 609Q422 609 478 585T574 519T636 420T659 298Q659 235 637 180T574 85T478 21T355 -2Q287 -2 232 21T137 84T76 180T54 298ZM355 555Q299 555
255 536T180 483T133 402T116 298Q116 244 132 199T179 121T254 70T355 52Q411 52 455 70T530 120T577 198T594 298Q594 355 578 402T531 483T456 536T355 555ZM377 420Q356 420 337 413T302 392T278 356T269 303Q269 246 300 217T380 187Q408 187 424 194T453
209Q473 198 473 177Q473 160 449 144T375 128Q338 128 306 139T250 172T212 227T198 303Q198 349 213 382T252 437T307 469T367 480Q412 480 440 465T469 425Q469 417 463 410T448 398Q434 406 417 413T377 420Z" />
<glyph unicode="&#xaa;" glyph-name="ordfeminine" horiz-adv-x="352" d="M174 358Q195 358 213 362T240 372V452L172 445Q136 441 120 432T104 404Q104 358 174 358ZM171 620Q199 620 223 615T264 597T291 563T301 510V355Q301 339 277 326Q257 316 230 311T174
305Q112 305 77 328T42 400Q42 445 72 467T159 495L240 503V510Q240 543 223 555T167 567Q141 567 116 559T73 540Q66 544 61 551T55 570Q55 581 60 587T76 600Q91 608 117 614T171 620Z" />
<glyph unicode="&#xab;" glyph-name="guillemotleft" horiz-adv-x="469" d="M239 82Q239 67 230 55T201 42Q188 42 177 50T156 69L45 192Q35 207 35 226Q35 242 39 250T50 265L195 416Q234 407 234 380Q234 368 228 359T207 334L101 225L239 82ZM429 82Q429 67
420 55T392 42Q378 42 367 50T347 69L235 192Q225 207 225 226Q225 242 229 250T240 265L385 416Q424 407 424 380Q424 368 418 359T397 334L292 225L429 82Z" />
<glyph unicode="&#xac;" glyph-name="logicalnot" horiz-adv-x="542" d="M452 383Q469 383 479 374T490 346V182Q482 179 474 177T454 175Q434 175 425 184T415 215V318H58Q51 332 51 349Q51 383 86 383H452Z" />
<glyph unicode="&#xad;" glyph-name="uni00AD" horiz-adv-x="389" d="M61 228Q58 235 56 242T54 260Q54 294 89 294H328Q330 288 332 280T335 263Q335 228 300 228H61Z" />
<glyph unicode="&#xae;" glyph-name="registered" horiz-adv-x="619" d="M58 377Q58 428 76 473T127 551T206 605T309 625Q364 625 410 605T490 552T542 473T561 377Q561 326 543 281T491 202T411 149T309 129Q252 129 206 148T127 202T76 281T58 377ZM113 377Q113
334 127 298T166 235T228 193T309 178Q353 178 389 193T451 234T491 297T505 377Q505 420 491 456T452 519T390 561T309 576Q265 576 229 561T167 520T127 457T113 377ZM279 350V270Q269 268 253 268Q241 268 234 272T227 291V476Q227 490 249 494Q263 497 275
498T301 499Q349 499 376 480T403 424Q403 398 389 381T353 357L410 287Q408 279 400 273T381 267Q363 267 348 287L305 350H279ZM311 391Q349 391 349 426Q349 441 337 449T305 458Q298 458 292 458T279 456V391H311Z" />
<glyph unicode="&#xaf;" glyph-name="overscore" horiz-adv-x="328" d="M40 570Q36 576 33 584T29 602Q29 619 38 627T61 635H289Q293 629 296 621T299 603Q299 570 267 570H40Z" />
<glyph unicode="&#xb0;" glyph-name="degree" horiz-adv-x="360" d="M321 489Q321 459 310 435T280 394T235 367T181 358Q150 358 124 368T79 395T50 437T39 489Q39 519 50 543T81 584T125 611T180 620Q208 620 234 611T279 585T309 544T321 489ZM180 561Q153
561 131 543T109 489Q109 454 130 435T180 416Q209 416 230 435T251 489Q251 524 229 542T180 561Z" />
<glyph unicode="&#xb1;" glyph-name="plusminus" horiz-adv-x="517" d="M297 383H460Q462 377 464 370T466 352Q466 318 431 318H297V150Q289 148 282 146T263 143Q243 143 234 152T224 184V318H57Q55 324 53 332T51 349Q51 383 86 383H224V547Q232 550 240 552T260
554Q279 554 288 545T297 514V383ZM57 0Q55 6 53 14T51 31Q51 65 86 65H460Q462 59 464 52T466 34Q466 0 431 0H57Z" />
<glyph unicode="&#xb2;" glyph-name="twosuperior" horiz-adv-x="276" d="M123 697Q176 697 206 671T236 598Q236 567 220 539T160 476L90 420H238Q244 409 244 395Q244 385 239 378T218 371H36Q23 384 23 403Q23 417 27 425T39 440L126 517Q150 538 164 558T178
598Q178 623 161 635T120 647Q100 647 83 640T51 622Q44 626 39 632T34 650Q34 660 41 668T61 683T90 693T123 697Z" />
<glyph unicode="&#xb3;" glyph-name="threesuperior" horiz-adv-x="272" d="M134 559Q154 559 167 570T180 600Q180 622 163 634T115 647Q92 647 74 640T43 625Q35 630 31 636T27 654Q27 673 55 685T121 697Q178 697 208 673T238 606Q238 582 225 563T189 536Q213
528 227 507T242 459Q242 409 207 386T120 363Q76 363 47 377T17 412Q17 433 37 443Q49 433 68 423T118 413Q147 413 165 425T184 464Q184 484 171 497T134 510H77Q69 521 69 535Q69 551 77 559H134Z" />
<glyph unicode="&#xb4;" glyph-name="acute" horiz-adv-x="298" d="M187 687Q209 686 222 675T236 649Q236 635 230 627T210 605L119 516Q99 516 87 526T75 550Q75 558 80 565T90 578L187 687Z" />
<glyph unicode="&#xb5;" glyph-name="mu" horiz-adv-x="552" d="M477 82Q477 61 472 49T445 24Q424 12 386 0T294 -13Q249 -13 211 -2T150 39Q153 9 155 -32T157 -115V-184Q152 -186 142 -188T121 -190Q77 -190 77 -154V460Q82 462 92 464T114 467Q157 467 157
430V173Q157 108 192 81T285 53Q325 53 353 61T397 79V460Q402 462 412 464T434 467Q477 467 477 430V82V82Z" />
<glyph unicode="&#xb6;" glyph-name="paragraph" horiz-adv-x="441" d="M328 613Q348 613 359 606T371 575V-69Q366 -71 356 -73T335 -75Q314 -75 303 -67T291 -38V544H225V276Q225 264 212 256T170 248Q142 248 114 258T64 291T29 346T15 426Q15 474 31 509T75
567T138 601T213 613H328Z" />
<glyph unicode="&#xb7;" glyph-name="middot" horiz-adv-x="141" d="M16 252Q16 276 30 292T71 308Q97 308 111 292T125 252Q125 229 111 213T71 197Q45 197 31 213T16 252Z" />
<glyph unicode="&#xb8;" glyph-name="cedilla" horiz-adv-x="195" d="M111 17Q139 -3 151 -28T163 -85Q163 -133 133 -161T55 -189Q3 -189 3 -153Q3 -140 9 -129H24Q60 -129 76 -114T93 -72Q93 -55 86 -35T61 2L111 17Z" />
<glyph unicode="&#xb9;" glyph-name="onesuperior" horiz-adv-x="211" d="M100 628L39 599Q31 603 24 611T16 630Q16 648 40 659L114 692H126Q157 692 157 659V373Q145 367 130 367Q116 367 108 372T100 395V628Z" />
<glyph unicode="&#xba;" glyph-name="ordmasculine" horiz-adv-x="378" d="M333 462Q333 386 294 346T189 305Q125 305 85 345T44 463Q44 502 55 531T85 580T131 610T189 620Q255 620 294 580T333 462ZM189 566Q152 566 130 539T107 463Q107 413 129 387T189 360Q226
360 248 386T270 462Q270 511 249 538T189 566Z" />
<glyph unicode="&#xbb;" glyph-name="guillemotright" horiz-adv-x="469" d="M230 376Q230 391 239 403T267 416Q281 416 292 408T312 389L424 266Q434 251 434 232Q434 216 430 208T419 193L273 42Q235 51 235 78Q235 90 241 99T262 124L367 233L230 376ZM40
376Q40 391 49 403T77 416Q91 416 102 408T122 389L234 266Q244 251 244 232Q244 216 240 208T228 193L83 42Q45 51 45 78Q45 90 51 99T72 124L177 233L40 376Z" />
<glyph unicode="&#xbc;" glyph-name="onequarter" horiz-adv-x="602" d="M92 548L31 519Q23 523 16 531T8 550Q8 568 32 579L106 612H118Q149 612 149 579V293Q137 287 122 287Q108 287 100 292T92 315V548ZM481 73H338Q330 77 325 85T319 104Q319 120 329 133L465
316Q480 321 497 321Q514 321 525 313T537 290V121H585Q587 116 588 112T590 99Q590 85 583 79T566 73H537V2Q525 -4 510 -4Q496 -4 489 1T481 24V73ZM483 187Q483 202 483 222T485 260L388 121H483V187ZM456 609Q495 607 495 580Q495 570 492 562T480 542L113
-5Q73 -3 73 24Q73 34 77 42T89 63L456 609Z" />
<glyph unicode="&#xbd;" glyph-name="onehalf" horiz-adv-x="621" d="M92 548L31 519Q23 523 16 531T8 550Q8 568 32 579L106 612H118Q149 612 149 579V293Q137 287 122 287Q108 287 100 292T92 315V548ZM473 326Q526 326 556 300T586 227Q586 196 570 168T510
105L440 49H588Q594 38 594 24Q594 14 589 7T568 0H386Q373 13 373 32Q373 46 377 54T389 69L476 146Q500 167 514 187T528 227Q528 252 511 264T470 276Q450 276 433 269T401 251Q394 255 389 261T384 279Q384 289 391 297T411 312T440 322T473 326ZM456 609Q495
607 495 580Q495 570 492 562T480 542L113 -5Q73 -3 73 24Q73 34 77 42T89 63L456 609Z" />
<glyph unicode="&#xbe;" glyph-name="threequarters" horiz-adv-x="647" d="M134 479Q154 479 167 490T180 520Q180 542 163 554T115 567Q92 567 74 560T43 545Q35 550 31 556T27 574Q27 593 55 605T121 617Q178 617 208 593T238 526Q238 502 225 483T189 456Q213
448 227 427T242 379Q242 329 207 306T120 283Q76 283 47 297T17 332Q17 353 37 363Q49 353 68 343T118 333Q147 333 165 345T184 384Q184 404 171 417T134 430H77Q69 441 69 455Q69 471 77 479H134ZM527 73H384Q376 77 371 85T365 104Q365 120 375 133L511 316Q526
321 543 321Q560 321 571 313T583 290V121H631Q633 116 634 112T636 99Q636 85 629 79T612 73H583V2Q571 -4 556 -4Q542 -4 535 1T527 24V73ZM529 187Q529 202 529 222T531 260L434 121H529V187ZM506 609Q545 607 545 580Q545 570 542 562T530 542L163 -5Q123 -3
123 24Q123 34 127 42T139 63L506 609Z" />
<glyph unicode="&#xbf;" glyph-name="questiondown" horiz-adv-x="459" d="M344 256Q364 236 364 212Q364 198 356 189T328 175L259 157Q193 140 158 107T122 19Q122 -29 156 -63T264 -98Q304 -98 344 -86T409 -53Q432 -70 432 -96Q432 -111 420 -124T384 -147T330
-163T261 -169Q211 -169 171 -155T101 -117T55 -58T39 18Q39 103 90 154T246 232L344 256ZM355 411Q355 387 340 371T299 354Q273 354 258 370T242 411Q242 435 257 451T299 467Q325 467 340 451T355 411Z" />
<glyph unicode="&#xc0;" glyph-name="Agrave" horiz-adv-x="592" d="M428 162H160Q153 142 145 119T130 73T115 31T104 -2Q90 -8 71 -8Q55 -8 43 0T30 28Q30 37 33 46T40 67Q55 109 78 175T129 315T185 465T238 601Q246 605 262 609T295 613Q315 613 333 607T357
587Q381 529 408 455T464 302T517 149T563 12Q555 3 544 -2T519 -8Q500 -8 490 0T473 29L428 162ZM294 545Q283 515 269 477T240 396T210 311T182 229H407Q392 274 376 319T346 407T319 484T298 545H294ZM172 768Q171 773 171 780Q171 796 180 806T205 817Q227
817 241 799L325 698Q324 682 316 673T293 664Q282 664 275 668T260 680L172 768Z" />
<glyph unicode="&#xc1;" glyph-name="Aacute" horiz-adv-x="592" d="M428 162H160Q153 142 145 119T130 73T115 31T104 -2Q90 -8 71 -8Q55 -8 43 0T30 28Q30 37 33 46T40 67Q55 109 78 175T129 315T185 465T238 601Q246 605 262 609T295 613Q315 613 333 607T357
587Q381 529 408 455T464 302T517 149T563 12Q555 3 544 -2T519 -8Q500 -8 490 0T473 29L428 162ZM294 545Q283 515 269 477T240 396T210 311T182 229H407Q392 274 376 319T346 407T319 484T298 545H294ZM376 820Q398 819 409 809T421 784Q421 770 416 761T396
740L311 664Q292 666 282 674T271 694Q271 704 275 711T285 724L376 820Z" />
<glyph unicode="&#xc2;" glyph-name="Acircumflex" horiz-adv-x="592" d="M298 751Q281 734 258 710T206 659Q189 661 178 669T167 692Q167 703 174 712T193 733L252 792Q274 814 299 814Q315 814 326 808T349 788L431 695Q431 680 422 671T397 661Q386 661 376
667T352 689L298 751ZM428 162H160Q153 142 145 119T130 73T115 31T104 -2Q90 -8 71 -8Q55 -8 43 0T30 28Q30 37 33 46T40 67Q55 109 78 175T129 315T185 465T238 601Q246 605 262 609T295 613Q315 613 333 607T357 587Q381 529 408 455T464 302T517 149T563 12Q555
3 544 -2T519 -8Q500 -8 490 0T473 29L428 162ZM294 545Q283 515 269 477T240 396T210 311T182 229H407Q392 274 376 319T346 407T319 484T298 545H294Z" />
<glyph unicode="&#xc3;" glyph-name="Atilde" horiz-adv-x="592" d="M428 162H160Q153 142 145 119T130 73T115 31T104 -2Q90 -8 71 -8Q55 -8 43 0T30 28Q30 37 33 46T40 67Q55 109 78 175T129 315T185 465T238 601Q246 605 262 609T295 613Q315 613 333 607T357
587Q381 529 408 455T464 302T517 149T563 12Q555 3 544 -2T519 -8Q500 -8 490 0T473 29L428 162ZM294 545Q283 515 269 477T240 396T210 311T182 229H407Q392 274 376 319T346 407T319 484T298 545H294ZM230 786Q251 786 269 781T302 769T332 758T359 752Q377
752 385 762T398 790H404Q422 790 436 782T450 752Q450 723 430 707T377 690Q356 690 337 695T302 707T271 719T245 725Q227 725 219 714T207 686H201Q183 686 169 695T155 724Q155 753 178 769T230 786Z" />
<glyph unicode="&#xc4;" glyph-name="Adieresis" horiz-adv-x="592" d="M428 162H160Q153 142 145 119T130 73T115 31T104 -2Q90 -8 71 -8Q55 -8 43 0T30 28Q30 37 33 46T40 67Q55 109 78 175T129 315T185 465T238 601Q246 605 262 609T295 613Q315 613 333 607T357
587Q381 529 408 455T464 302T517 149T563 12Q555 3 544 -2T519 -8Q500 -8 490 0T473 29L428 162ZM294 545Q283 515 269 477T240 396T210 311T182 229H407Q392 274 376 319T346 407T319 484T298 545H294ZM259 738Q259 718 245 704T209 690Q188 690 175 704T161
738Q161 758 174 772T209 786Q231 786 245 772T259 738ZM432 738Q432 718 418 704T382 690Q362 690 348 704T333 738Q333 758 347 772T382 786Q403 786 417 772T432 738Z" />
<glyph unicode="&#xc5;" glyph-name="Aring" horiz-adv-x="592" d="M428 162H160Q153 142 145 119T130 73T115 31T104 -2Q90 -8 71 -8Q55 -8 43 0T30 28Q30 37 33 46T40 67Q55 109 78 175T129 315T185 465T238 601Q246 605 262 609T295 613Q315 613 333 607T357
587Q381 529 408 455T464 302T517 149T563 12Q555 3 544 -2T519 -8Q500 -8 490 0T473 29L428 162ZM294 545Q283 515 269 477T240 396T210 311T182 229H407Q392 274 376 319T346 407T319 484T298 545H294ZM191 744Q191 783 219 809T297 835Q348 835 375 809T403
744Q403 706 376 680T297 654Q247 654 219 680T191 744ZM251 744Q251 725 264 714T297 703Q317 703 330 714T344 744Q344 764 331 775T297 786Q277 786 264 775T251 744Z" />
<glyph unicode="&#xc6;" glyph-name="AE" horiz-adv-x="844" d="M397 613Q412 613 426 609T448 598Q461 608 483 608H778Q782 603 785 595T788 576Q788 559 780 549T757 539H484V346H747Q751 341 754 333T757 314Q757 297 749 288T726 278H484V68H783Q786 63 789
55T793 36Q793 19 785 10T762 0H446Q427 0 416 12T404 44V162H194L108 -3Q101 -5 96 -6T79 -8Q39 -8 39 24Q39 33 43 43T54 67Q63 84 81 118T123 196T176 293T233 399T292 505T346 601Q354 606 367 609T397 613ZM230 229H404V541H398L230 229Z" />
<glyph unicode="&#xc7;" glyph-name="Ccedilla" horiz-adv-x="588" d="M533 541Q533 527 525 517T505 502Q479 520 444 536T353 552Q307 552 268 536T200 489T155 411T138 303Q138 241 154 195T198 118T267 72T356 56Q408 56 446 70T511 105Q521 101 530 91T539
66Q539 45 515 28Q495 14 464 4T387 -11Q409 -42 409 -85Q409 -133 379 -161T301 -189Q249 -189 249 -153Q249 -140 255 -129H270Q306 -129 322 -114T339 -72Q339 -58 334 -42T318 -11Q261 -7 213 15T130 76T74 172T54 303Q54 382 77 441T141 541T234 601T347 621Q388
621 422 614T481 596T519 570T533 541Z" />
<glyph unicode="&#xc8;" glyph-name="Egrave" horiz-adv-x="542" d="M145 0Q125 0 113 12T101 44V564Q101 584 113 596T145 608H477Q480 603 483 595T486 576Q486 559 478 549T455 539H182V346H446Q449 341 452 333T455 314Q455 297 447 288T424 278H182V68H482Q485
63 488 55T491 36Q491 19 483 10T460 0H145ZM191 768Q190 773 190 780Q190 796 199 806T224 817Q246 817 260 799L344 698Q343 682 335 673T312 664Q301 664 294 668T279 680L191 768Z" />
<glyph unicode="&#xc9;" glyph-name="Eacute" horiz-adv-x="542" d="M145 0Q125 0 113 12T101 44V564Q101 584 113 596T145 608H477Q480 603 483 595T486 576Q486 559 478 549T455 539H182V346H446Q449 341 452 333T455 314Q455 297 447 288T424 278H182V68H482Q485
63 488 55T491 36Q491 19 483 10T460 0H145ZM370 820Q392 819 403 809T415 784Q415 770 410 761T390 740L305 664Q286 666 276 674T265 694Q265 704 269 711T279 724L370 820Z" />
<glyph unicode="&#xca;" glyph-name="Ecircumflex" horiz-adv-x="542" d="M145 0Q125 0 113 12T101 44V564Q101 584 113 596T145 608H477Q480 603 483 595T486 576Q486 559 478 549T455 539H182V346H446Q449 341 452 333T455 314Q455 297 447 288T424 278H182V68H482Q485
63 488 55T491 36Q491 19 483 10T460 0H145ZM296 751Q279 734 256 710T204 659Q187 661 176 669T165 692Q165 703 172 712T191 733L250 792Q272 814 297 814Q313 814 324 808T347 788L429 695Q429 680 420 671T395 661Q384 661 374 667T350 689L296 751Z" />
<glyph unicode="&#xcb;" glyph-name="Edieresis" horiz-adv-x="542" d="M145 0Q125 0 113 12T101 44V564Q101 584 113 596T145 608H477Q480 603 483 595T486 576Q486 559 478 549T455 539H182V346H446Q449 341 452 333T455 314Q455 297 447 288T424 278H182V68H482Q485
63 488 55T491 36Q491 19 483 10T460 0H145ZM264 729Q264 709 250 695T214 681Q193 681 180 695T166 729Q166 749 179 763T214 777Q236 777 250 763T264 729ZM437 729Q437 709 423 695T387 681Q367 681 353 695T338 729Q338 749 352 763T387 777Q408 777 422 763T437
729Z" />
<glyph unicode="&#xcc;" glyph-name="Igrave" horiz-adv-x="262" d="M171 2Q166 0 156 -2T134 -5Q90 -5 90 32V606Q95 608 105 610T128 613Q171 613 171 576V2ZM4 768Q3 773 3 780Q3 796 12 806T37 817Q59 817 73 799L157 698Q156 682 148 673T125 664Q114 664
107 668T92 680L4 768Z" />
<glyph unicode="&#xcd;" glyph-name="Iacute" horiz-adv-x="262" d="M171 2Q166 0 156 -2T134 -5Q90 -5 90 32V606Q95 608 105 610T128 613Q171 613 171 576V2ZM204 820Q226 819 237 809T249 784Q249 770 244 761T224 740L139 664Q120 666 110 674T99 694Q99 704
103 711T113 724L204 820Z" />
<glyph unicode="&#xce;" glyph-name="Icircumflex" horiz-adv-x="262" d="M171 2Q166 0 156 -2T134 -5Q90 -5 90 32V606Q95 608 105 610T128 613Q171 613 171 576V2ZM132 751Q115 734 92 710T40 659Q23 661 12 669T1 692Q1 703 8 712T27 733L86 792Q108 814 133
814Q149 814 160 808T183 788L265 695Q265 680 256 671T231 661Q220 661 210 667T186 689L132 751Z" />
<glyph unicode="&#xcf;" glyph-name="Idieresis" horiz-adv-x="262" d="M171 2Q166 0 156 -2T134 -5Q90 -5 90 32V606Q95 608 105 610T128 613Q171 613 171 576V2ZM94 729Q94 709 80 695T44 681Q23 681 10 695T-4 729Q-4 749 9 763T44 777Q66 777 80 763T94 729ZM267
729Q267 709 253 695T217 681Q197 681 183 695T168 729Q168 749 182 763T217 777Q238 777 252 763T267 729Z" />
<glyph unicode="&#xd0;" glyph-name="Eth" horiz-adv-x="682" d="M627 311Q627 229 605 169T541 68T440 9T308 -11Q276 -11 236 -9T160 5Q118 18 118 51V270H20Q16 275 13 283T10 302Q10 319 18 328T41 338H118V565Q118 581 126 589T151 603Q182 613 221 616T299
619Q372 619 432 600T536 542T603 446T627 311ZM544 311Q544 375 525 420T472 495T394 537T298 551Q266 551 243 549T199 543V338H353Q356 333 359 325T362 306Q362 289 354 280T331 270H199V67Q223 61 250 59T307 57Q425 57 484 121T544 311Z" />
<glyph unicode="&#xd1;" glyph-name="Ntilde" horiz-adv-x="660" d="M133 -5Q89 -5 89 31V596Q107 614 143 614Q167 614 184 605T215 570L406 250Q418 229 431 206T456 159T478 115T496 80L500 81Q492 162 491 244T489 404V606Q495 608 505 610T527 613Q571 613
571 577V11Q562 3 548 -1T517 -6Q493 -6 476 3T445 38L255 358Q243 378 230 402T204 449T181 493T163 528L159 527Q164 479 167 418T170 301V2Q165 0 155 -2T133 -5ZM250 786Q271 786 289 781T322 769T352 758T379 752Q397 752 405 762T418 790H424Q442 790 456
782T470 752Q470 723 450 707T397 690Q376 690 357 695T322 707T291 719T265 725Q247 725 239 714T227 686H221Q203 686 189 695T175 724Q175 753 198 769T250 786Z" />
<glyph unicode="&#xd2;" glyph-name="Ograve" horiz-adv-x="689" d="M634 304Q634 226 612 167T551 68T459 8T344 -13Q282 -13 229 7T137 67T76 166T54 304Q54 382 76 441T138 540T230 600T344 621Q405 621 458 601T550 540T611 441T634 304ZM551 304Q551 424
495 488T344 552Q297 552 259 536T194 488T153 410T138 304Q138 184 194 120T344 56Q439 56 495 120T551 304ZM223 768Q222 773 222 780Q222 796 231 806T256 817Q278 817 292 799L376 698Q375 682 367 673T344 664Q333 664 326 668T311 680L223 768Z" />
<glyph unicode="&#xd3;" glyph-name="Oacute" horiz-adv-x="689" d="M634 304Q634 226 612 167T551 68T459 8T344 -13Q282 -13 229 7T137 67T76 166T54 304Q54 382 76 441T138 540T230 600T344 621Q405 621 458 601T550 540T611 441T634 304ZM551 304Q551 424
495 488T344 552Q297 552 259 536T194 488T153 410T138 304Q138 184 194 120T344 56Q439 56 495 120T551 304ZM422 820Q444 819 455 809T467 784Q467 770 462 761T442 740L357 664Q338 666 328 674T317 694Q317 704 321 711T331 724L422 820Z" />
<glyph unicode="&#xd4;" glyph-name="Ocircumflex" horiz-adv-x="689" d="M634 304Q634 226 612 167T551 68T459 8T344 -13Q282 -13 229 7T137 67T76 166T54 304Q54 382 76 441T138 540T230 600T344 621Q405 621 458 601T550 540T611 441T634 304ZM551 304Q551
424 495 488T344 552Q297 552 259 536T194 488T153 410T138 304Q138 184 194 120T344 56Q439 56 495 120T551 304ZM343 751Q326 734 303 710T251 659Q234 661 223 669T212 692Q212 703 219 712T238 733L297 792Q319 814 344 814Q360 814 371 808T394 788L476 695Q476
680 467 671T442 661Q431 661 421 667T397 689L343 751Z" />
<glyph unicode="&#xd5;" glyph-name="Otilde" horiz-adv-x="689" d="M634 304Q634 226 612 167T551 68T459 8T344 -13Q282 -13 229 7T137 67T76 166T54 304Q54 382 76 441T138 540T230 600T344 621Q405 621 458 601T550 540T611 441T634 304ZM551 304Q551 424
495 488T344 552Q297 552 259 536T194 488T153 410T138 304Q138 184 194 120T344 56Q439 56 495 120T551 304ZM272 786Q293 786 311 781T344 769T374 758T401 752Q419 752 427 762T440 790H446Q464 790 478 782T492 752Q492 723 472 707T419 690Q398 690 379 695T344
707T313 719T287 725Q269 725 261 714T249 686H243Q225 686 211 695T197 724Q197 753 220 769T272 786Z" />
<glyph unicode="&#xd6;" glyph-name="Odieresis" horiz-adv-x="689" d="M634 304Q634 226 612 167T551 68T459 8T344 -13Q282 -13 229 7T137 67T76 166T54 304Q54 382 76 441T138 540T230 600T344 621Q405 621 458 601T550 540T611 441T634 304ZM551 304Q551 424
495 488T344 552Q297 552 259 536T194 488T153 410T138 304Q138 184 194 120T344 56Q439 56 495 120T551 304ZM306 729Q306 709 292 695T256 681Q235 681 222 695T208 729Q208 749 221 763T256 777Q278 777 292 763T306 729ZM479 729Q479 709 465 695T429 681Q409
681 395 695T380 729Q380 749 394 763T429 777Q450 777 464 763T479 729Z" />
<glyph unicode="&#xd7;" glyph-name="multiply" horiz-adv-x="495" d="M298 289L436 141Q431 128 421 117T395 106Q386 106 378 110T365 121L249 250L101 102Q88 107 74 116T60 141Q60 150 66 158T80 174L203 294L62 444Q66 457 76 469T101 481Q111 481 119 476T132
464L252 333L391 479Q403 475 415 466T427 440Q427 431 422 423T410 408L298 289Z" />
<glyph unicode="&#xd8;" glyph-name="Oslash" horiz-adv-x="689" d="M634 304Q634 226 612 167T551 68T459 8T344 -13Q234 -13 157 50L96 -16Q70 -11 60 1T49 25Q49 38 55 47T75 70L108 104Q82 142 68 192T54 304Q54 382 76 441T138 540T230 600T344 621Q395 621
440 606T523 562L581 626Q601 621 614 611T628 587Q628 578 623 568T603 541L574 509Q602 470 618 419T634 304ZM552 304Q552 348 544 384T519 450L209 106Q235 82 269 69T344 56Q439 56 495 120T552 304ZM137 304Q137 222 166 164L473 507Q420 552 344 552Q297
552 259 536T194 488T152 410T137 304Z" />
<glyph unicode="&#xd9;" glyph-name="Ugrave" d="M561 210Q561 159 546 118T500 48T425 3T324 -13Q267 -13 223 3T149 48T104 118T88 210V606Q93 608 103 610T126 613Q169 613 169 576V217Q169 177 181 147T213 97T262 66T324 56Q357 56 385 66T434 96T467 147T479
217V606Q484 608 494 610T517 613Q561 613 561 576V210ZM198 768Q197 773 197 780Q197 796 206 806T231 817Q253 817 267 799L351 698Q350 682 342 673T319 664Q308 664 301 668T286 680L198 768Z" />
<glyph unicode="&#xda;" glyph-name="Uacute" d="M561 210Q561 159 546 118T500 48T425 3T324 -13Q267 -13 223 3T149 48T104 118T88 210V606Q93 608 103 610T126 613Q169 613 169 576V217Q169 177 181 147T213 97T262 66T324 56Q357 56 385 66T434 96T467 147T479
217V606Q484 608 494 610T517 613Q561 613 561 576V210ZM401 820Q423 819 434 809T446 784Q446 770 441 761T421 740L336 664Q317 666 307 674T296 694Q296 704 300 711T310 724L401 820Z" />
<glyph unicode="&#xdb;" glyph-name="Ucircumflex" d="M561 210Q561 159 546 118T500 48T425 3T324 -13Q267 -13 223 3T149 48T104 118T88 210V606Q93 608 103 610T126 613Q169 613 169 576V217Q169 177 181 147T213 97T262 66T324 56Q357 56 385 66T434 96T467
147T479 217V606Q484 608 494 610T517 613Q561 613 561 576V210ZM329 751Q312 734 289 710T237 659Q220 661 209 669T198 692Q198 703 205 712T224 733L283 792Q305 814 330 814Q346 814 357 808T380 788L462 695Q462 680 453 671T428 661Q417 661 407 667T383
689L329 751Z" />
<glyph unicode="&#xdc;" glyph-name="Udieresis" d="M561 210Q561 159 546 118T500 48T425 3T324 -13Q267 -13 223 3T149 48T104 118T88 210V606Q93 608 103 610T126 613Q169 613 169 576V217Q169 177 181 147T213 97T262 66T324 56Q357 56 385 66T434 96T467
147T479 217V606Q484 608 494 610T517 613Q561 613 561 576V210ZM286 729Q286 709 272 695T236 681Q215 681 202 695T188 729Q188 749 201 763T236 777Q258 777 272 763T286 729ZM459 729Q459 709 445 695T409 681Q389 681 375 695T360 729Q360 749 374 763T409
777Q430 777 444 763T459 729Z" />
<glyph unicode="&#xdd;" glyph-name="Yacute" horiz-adv-x="550" d="M523 580Q523 569 508 538T466 459T402 352T319 225V2Q314 0 304 -2T282 -5Q238 -5 238 32V225Q210 266 181 312T122 405T67 497T21 582Q25 593 36 603T65 614Q84 614 94 604T116 574Q132 546
153 508T197 431T241 356T277 295H281Q333 382 373 457T454 607Q460 611 468 612T485 614Q523 614 523 580ZM345 820Q367 819 378 809T390 784Q390 770 385 761T365 740L280 664Q261 666 251 674T240 694Q240 704 244 711T254 724L345 820Z" />
<glyph unicode="&#xde;" glyph-name="Thorn" horiz-adv-x="575" d="M89 607Q94 609 104 611T126 613Q170 613 170 577V497H298Q411 497 466 446T522 305Q522 262 508 227T466 166T396 127T298 113H170V1Q165 -1 155 -3T134 -5Q89 -5 89 31V607ZM170 182H279Q355
182 398 212T441 305Q441 368 398 398T279 428H170V182Z" />
<glyph unicode="&#xdf;" glyph-name="germandbls" horiz-adv-x="577" d="M160 -2Q155 -4 146 -6T125 -8Q80 -8 80 29V475Q80 522 95 558T136 619T199 657T277 670Q319 670 355 658T419 619T461 554T477 463Q477 429 442 415L398 398Q372 385 362 373T351 340Q351
320 363 306T407 271Q438 253 462 237T502 204T526 165T535 116Q535 49 489 16T370 -17Q312 -17 280 1T247 45Q247 57 253 69T273 86Q292 71 316 61T373 51Q409 51 431 69T454 117Q454 130 451 141T438 163T412 185T370 210Q320 236 295 266T269 341Q269 383 290
409T354 454L397 472Q397 500 388 524T364 565T326 592T276 602Q253 602 232 595T195 573T170 533T160 474V-2Z" />
<glyph unicode="&#xe0;" glyph-name="agrave" horiz-adv-x="499" d="M240 52Q282 52 309 60T349 77V222L225 209Q173 204 148 186T123 131Q123 93 152 73T240 52ZM239 475Q326 475 377 436T428 313V76Q428 54 420 43T394 21Q370 7 331 -3T240 -14Q146 -14 95 23T43
130Q43 196 86 229T207 271L349 285V313Q349 363 319 386T238 409Q196 409 159 397T93 370Q85 377 79 386T72 406Q72 420 79 429T101 446Q128 460 163 467T239 475ZM118 634Q116 644 116 647Q116 663 126 673T154 683Q175 683 189 666L279 553Q278 537 269 528T246
518Q235 518 228 522T212 534L118 634Z" />
<glyph unicode="&#xe1;" glyph-name="aacute" horiz-adv-x="499" d="M240 52Q282 52 309 60T349 77V222L225 209Q173 204 148 186T123 131Q123 93 152 73T240 52ZM239 475Q326 475 377 436T428 313V76Q428 54 420 43T394 21Q370 7 331 -3T240 -14Q146 -14 95 23T43
130Q43 196 86 229T207 271L349 285V313Q349 363 319 386T238 409Q196 409 159 397T93 370Q85 377 79 386T72 406Q72 420 79 429T101 446Q128 460 163 467T239 475ZM315 687Q337 686 350 675T364 649Q364 635 358 627T338 605L247 516Q227 516 215 526T203 550Q203
558 208 565T218 578L315 687Z" />
<glyph unicode="&#xe2;" glyph-name="acircumflex" horiz-adv-x="499" d="M240 52Q282 52 309 60T349 77V222L225 209Q173 204 148 186T123 131Q123 93 152 73T240 52ZM239 475Q326 475 377 436T428 313V76Q428 54 420 43T394 21Q370 7 331 -3T240 -14Q146 -14
95 23T43 130Q43 196 86 229T207 271L349 285V313Q349 363 319 386T238 409Q196 409 159 397T93 370Q85 377 79 386T72 406Q72 420 79 429T101 446Q128 460 163 467T239 475ZM243 618Q220 590 198 567T155 520Q137 522 125 530T113 553Q113 564 119 572T135 591L196
657Q209 668 219 674T243 680Q259 680 269 674T290 656L374 556Q374 542 367 532T343 522Q331 522 324 527T308 541L243 618Z" />
<glyph unicode="&#xe3;" glyph-name="atilde" horiz-adv-x="499" d="M240 52Q282 52 309 60T349 77V222L225 209Q173 204 148 186T123 131Q123 93 152 73T240 52ZM239 475Q326 475 377 436T428 313V76Q428 54 420 43T394 21Q370 7 331 -3T240 -14Q146 -14 95 23T43
130Q43 196 86 229T207 271L349 285V313Q349 363 319 386T238 409Q196 409 159 397T93 370Q85 377 79 386T72 406Q72 420 79 429T101 446Q128 460 163 467T239 475ZM167 651Q188 651 206 646T239 634T269 623T296 617Q314 617 322 627T335 655H341Q359 655 373
647T387 617Q387 588 367 572T314 555Q293 555 274 560T239 572T208 584T182 590Q164 590 156 579T144 551H138Q120 551 106 560T92 589Q92 618 115 634T167 651Z" />
<glyph unicode="&#xe4;" glyph-name="adieresis" horiz-adv-x="499" d="M240 52Q282 52 309 60T349 77V222L225 209Q173 204 148 186T123 131Q123 93 152 73T240 52ZM239 475Q326 475 377 436T428 313V76Q428 54 420 43T394 21Q370 7 331 -3T240 -14Q146 -14 95
23T43 130Q43 196 86 229T207 271L349 285V313Q349 363 319 386T238 409Q196 409 159 397T93 370Q85 377 79 386T72 406Q72 420 79 429T101 446Q128 460 163 467T239 475ZM211 601Q211 581 197 567T161 553Q140 553 127 567T113 601Q113 621 126 635T161 649Q183
649 197 635T211 601ZM384 601Q384 581 370 567T334 553Q314 553 300 567T285 601Q285 621 299 635T334 649Q355 649 369 635T384 601Z" />
<glyph unicode="&#xe5;" glyph-name="aring" horiz-adv-x="499" d="M240 52Q282 52 309 60T349 77V222L225 209Q173 204 148 186T123 131Q123 93 152 73T240 52ZM239 475Q326 475 377 436T428 313V76Q428 54 420 43T394 21Q370 7 331 -3T240 -14Q146 -14 95 23T43
130Q43 196 86 229T207 271L349 285V313Q349 363 319 386T238 409Q196 409 159 397T93 370Q85 377 79 386T72 406Q72 420 79 429T101 446Q128 460 163 467T239 475ZM147 612Q147 651 174 678T251 705Q301 705 328 678T355 612Q355 573 328 546T251 519Q201 519
174 546T147 612ZM205 612Q205 590 218 578T251 566Q271 566 284 578T298 612Q298 634 285 646T251 658Q231 658 218 646T205 612Z" />
<glyph unicode="&#xe6;" glyph-name="ae" horiz-adv-x="811" d="M239 475Q299 475 339 455T398 391Q425 432 467 453T563 475Q608 475 646 460T711 418T754 353T770 270Q770 248 760 239T732 227L423 184Q437 119 480 86T595 53Q637 53 671 67T726 97Q750 83 750
59Q750 45 738 32T704 9T654 -7T592 -13Q531 -13 486 6T412 60Q410 42 400 31T375 12Q353 1 322 -6T240 -14Q146 -14 95 23T43 130Q43 196 86 229T207 271L349 285V313Q349 363 319 386T238 409Q196 409 159 397T93 370Q85 377 79 386T72 406Q72 420 79 429T101
446Q128 460 163 467T239 475ZM240 52Q282 52 309 60T349 77V222L225 209Q173 204 148 186T123 131Q123 93 152 73T240 52ZM562 410Q500 410 461 368T419 247L694 284Q689 339 656 374T562 410Z" />
<glyph unicode="&#xe7;" glyph-name="ccedilla" horiz-adv-x="478" d="M289 408Q255 408 226 397T176 363T143 307T131 230Q131 144 174 99T289 53Q331 53 359 64T409 91Q420 85 427 76T434 54Q434 31 405 14T329 -10Q352 -42 352 -85Q352 -133 322 -161T244 -189Q192
-189 192 -153Q192 -140 198 -129H213Q249 -129 265 -114T282 -72Q282 -58 278 -43T262 -12Q215 -8 176 8T109 55T65 128T49 230Q49 291 68 336T119 413T194 459T287 475Q318 475 344 470T390 454T419 432T430 406Q430 394 423 385T405 371Q383 386 357 397T289
408Z" />
<glyph unicode="&#xe8;" glyph-name="egrave" horiz-adv-x="519" d="M132 184Q159 53 304 53Q346 53 380 67T434 97Q458 83 458 59Q458 45 446 32T412 9T362 -7T300 -13Q184 -13 117 50T49 234Q49 291 65 335T111 411T182 458T271 475Q316 475 354 460T419 418T462
353T478 270Q478 248 468 239T440 227L132 184ZM270 410Q209 410 169 368T127 246L402 284Q397 339 364 374T270 410ZM141 634Q139 644 139 647Q139 663 149 673T177 683Q198 683 212 666L302 553Q301 537 292 528T269 518Q258 518 251 522T235 534L141 634Z" />
<glyph unicode="&#xe9;" glyph-name="eacute" horiz-adv-x="519" d="M132 184Q159 53 304 53Q346 53 380 67T434 97Q458 83 458 59Q458 45 446 32T412 9T362 -7T300 -13Q184 -13 117 50T49 234Q49 291 65 335T111 411T182 458T271 475Q316 475 354 460T419 418T462
353T478 270Q478 248 468 239T440 227L132 184ZM270 410Q209 410 169 368T127 246L402 284Q397 339 364 374T270 410ZM355 687Q377 686 390 675T404 649Q404 635 398 627T378 605L287 516Q267 516 255 526T243 550Q243 558 248 565T258 578L355 687Z" />
<glyph unicode="&#xea;" glyph-name="ecircumflex" horiz-adv-x="519" d="M132 184Q159 53 304 53Q346 53 380 67T434 97Q458 83 458 59Q458 45 446 32T412 9T362 -7T300 -13Q184 -13 117 50T49 234Q49 291 65 335T111 411T182 458T271 475Q316 475 354 460T419
418T462 353T478 270Q478 248 468 239T440 227L132 184ZM270 410Q209 410 169 368T127 246L402 284Q397 339 364 374T270 410ZM272 618Q249 590 227 567T184 520Q166 522 154 530T142 553Q142 564 148 572T164 591L225 657Q238 668 248 674T272 680Q288 680 298
674T319 656L403 556Q403 542 396 532T372 522Q360 522 353 527T337 541L272 618Z" />
<glyph unicode="&#xeb;" glyph-name="edieresis" horiz-adv-x="519" d="M132 184Q159 53 304 53Q346 53 380 67T434 97Q458 83 458 59Q458 45 446 32T412 9T362 -7T300 -13Q184 -13 117 50T49 234Q49 291 65 335T111 411T182 458T271 475Q316 475 354 460T419
418T462 353T478 270Q478 248 468 239T440 227L132 184ZM270 410Q209 410 169 368T127 246L402 284Q397 339 364 374T270 410ZM232 601Q232 581 218 567T182 553Q161 553 148 567T134 601Q134 621 147 635T182 649Q204 649 218 635T232 601ZM405 601Q405 581 391
567T355 553Q335 553 321 567T306 601Q306 621 320 635T355 649Q376 649 390 635T405 601Z" />
<glyph unicode="&#xec;" glyph-name="igrave" horiz-adv-x="241" d="M125 -8Q80 -8 80 29V459Q85 461 95 463T116 465Q160 465 160 428V-2Q155 -4 146 -6T125 -8ZM-10 634Q-12 644 -12 647Q-12 663 -2 673T26 683Q47 683 61 666L151 553Q150 537 141 528T118 518Q107
518 100 522T84 534L-10 634Z" />
<glyph unicode="&#xed;" glyph-name="iacute" horiz-adv-x="241" d="M125 -8Q80 -8 80 29V459Q85 461 95 463T116 465Q160 465 160 428V-2Q155 -4 146 -6T125 -8ZM201 687Q223 686 236 675T250 649Q250 635 244 627T224 605L133 516Q113 516 101 526T89 550Q89
558 94 565T104 578L201 687Z" />
<glyph unicode="&#xee;" glyph-name="icircumflex" horiz-adv-x="241" d="M125 -8Q80 -8 80 29V459Q85 461 95 463T116 465Q160 465 160 428V-2Q155 -4 146 -6T125 -8ZM123 618Q100 590 78 567T35 520Q17 522 5 530T-7 553Q-7 564 -1 572T15 591L76 657Q89 668
99 674T123 680Q139 680 149 674T170 656L254 556Q254 542 247 532T223 522Q211 522 204 527T188 541L123 618Z" />
<glyph unicode="&#xef;" glyph-name="idieresis" horiz-adv-x="241" d="M125 -8Q80 -8 80 29V459Q85 461 95 463T116 465Q160 465 160 428V-2Q155 -4 146 -6T125 -8ZM83 601Q83 581 69 567T33 553Q12 553 -1 567T-15 601Q-15 621 -2 635T33 649Q55 649 69 635T83
601ZM256 601Q256 581 242 567T206 553Q186 553 172 567T157 601Q157 621 171 635T206 649Q227 649 241 635T256 601Z" />
<glyph unicode="&#xf0;" glyph-name="eth" horiz-adv-x="537" d="M376 544Q422 488 454 409T487 239Q487 114 430 51T271 -13Q220 -13 179 2T109 47T65 119T49 214Q49 272 66 314T113 383T180 423T259 436Q295 436 324 426T377 398Q361 432 343 461T299 516L185
476Q174 482 168 492T161 516Q161 537 186 546L243 567Q220 583 196 593T145 611Q145 630 155 644T187 659Q216 659 252 642T325 595L423 634Q433 627 440 618T448 594Q448 580 442 574T423 562L376 544ZM406 220Q406 243 405 262T401 299Q379 332 346 351T273
370Q201 370 166 328T131 214Q131 140 168 97T272 53Q339 53 372 98T406 220Z" />
<glyph unicode="&#xf1;" glyph-name="ntilde" horiz-adv-x="560" d="M405 301Q405 357 374 383T289 409Q249 409 218 399T165 376V2Q160 0 150 -2T128 -5Q85 -5 85 31V372Q85 393 93 406T123 433Q149 449 192 462T289 475Q380 475 432 434T485 305V2Q480 0 470
-2T448 -5Q405 -5 405 31V301ZM203 651Q224 651 242 646T275 634T305 623T332 617Q350 617 358 627T371 655H377Q395 655 409 647T423 617Q423 588 403 572T350 555Q329 555 310 560T275 572T244 584T218 590Q200 590 192 579T180 551H174Q156 551 142 560T128
589Q128 618 151 634T203 651Z" />
<glyph unicode="&#xf2;" glyph-name="ograve" horiz-adv-x="553" d="M504 231Q504 175 488 130T443 53T371 4T277 -13Q225 -13 183 4T111 53T65 130T49 231Q49 287 65 332T112 409T184 458T277 475Q328 475 370 458T441 409T487 332T504 231ZM277 409Q209 409
170 362T131 231Q131 146 169 100T277 53Q346 53 384 100T422 231Q422 315 384 362T277 409ZM149 634Q147 644 147 647Q147 663 157 673T185 683Q206 683 220 666L310 553Q309 537 300 528T277 518Q266 518 259 522T243 534L149 634Z" />
<glyph unicode="&#xf3;" glyph-name="oacute" horiz-adv-x="553" d="M504 231Q504 175 488 130T443 53T371 4T277 -13Q225 -13 183 4T111 53T65 130T49 231Q49 287 65 332T112 409T184 458T277 475Q328 475 370 458T441 409T487 332T504 231ZM277 409Q209 409
170 362T131 231Q131 146 169 100T277 53Q346 53 384 100T422 231Q422 315 384 362T277 409ZM371 687Q393 686 406 675T420 649Q420 635 414 627T394 605L303 516Q283 516 271 526T259 550Q259 558 264 565T274 578L371 687Z" />
<glyph unicode="&#xf4;" glyph-name="ocircumflex" horiz-adv-x="553" d="M504 231Q504 175 488 130T443 53T371 4T277 -13Q225 -13 183 4T111 53T65 130T49 231Q49 287 65 332T112 409T184 458T277 475Q328 475 370 458T441 409T487 332T504 231ZM277 409Q209
409 170 362T131 231Q131 146 169 100T277 53Q346 53 384 100T422 231Q422 315 384 362T277 409ZM277 618Q254 590 232 567T189 520Q171 522 159 530T147 553Q147 564 153 572T169 591L230 657Q243 668 253 674T277 680Q293 680 303 674T324 656L408 556Q408 542
401 532T377 522Q365 522 358 527T342 541L277 618Z" />
<glyph unicode="&#xf5;" glyph-name="otilde" horiz-adv-x="553" d="M504 231Q504 175 488 130T443 53T371 4T277 -13Q225 -13 183 4T111 53T65 130T49 231Q49 287 65 332T112 409T184 458T277 475Q328 475 370 458T441 409T487 332T504 231ZM277 409Q209 409
170 362T131 231Q131 146 169 100T277 53Q346 53 384 100T422 231Q422 315 384 362T277 409ZM206 651Q227 651 245 646T278 634T308 623T335 617Q353 617 361 627T374 655H380Q398 655 412 647T426 617Q426 588 406 572T353 555Q332 555 313 560T278 572T247 584T221
590Q203 590 195 579T183 551H177Q159 551 145 560T131 589Q131 618 154 634T206 651Z" />
<glyph unicode="&#xf6;" glyph-name="odieresis" horiz-adv-x="553" d="M504 231Q504 175 488 130T443 53T371 4T277 -13Q225 -13 183 4T111 53T65 130T49 231Q49 287 65 332T112 409T184 458T277 475Q328 475 370 458T441 409T487 332T504 231ZM277 409Q209 409
170 362T131 231Q131 146 169 100T277 53Q346 53 384 100T422 231Q422 315 384 362T277 409ZM240 601Q240 581 226 567T190 553Q169 553 156 567T142 601Q142 621 155 635T190 649Q212 649 226 635T240 601ZM413 601Q413 581 399 567T363 553Q343 553 329 567T314
601Q314 621 328 635T363 649Q384 649 398 635T413 601Z" />
<glyph unicode="&#xf7;" glyph-name="divide" horiz-adv-x="522" d="M58 266Q55 273 53 280T51 298Q51 332 86 332H464Q471 318 471 301Q471 266 436 266H58ZM210 135Q210 158 224 173T263 188Q287 188 301 173T316 135Q316 112 302 97T263 82Q239 82 225 97T210
135ZM210 459Q210 482 224 497T263 512Q287 512 301 497T316 459Q316 436 302 421T263 406Q239 406 225 421T210 459Z" />
<glyph unicode="&#xf8;" glyph-name="oslash" horiz-adv-x="553" d="M504 231Q504 175 488 130T443 53T371 4T277 -13Q217 -13 169 10L121 -61Q98 -61 85 -51T71 -26Q71 -17 77 -8L116 48Q84 80 67 126T49 231Q49 287 65 332T112 409T184 458T277 475Q335 475
383 452L430 523Q451 523 465 514T479 487Q479 480 473 471L435 415Q468 383 486 337T504 231ZM424 231Q424 307 390 353L208 68Q238 53 277 53Q346 53 385 99T424 231ZM277 409Q209 409 169 362T129 231Q129 156 161 110L344 394Q314 409 277 409Z" />
<glyph unicode="&#xf9;" glyph-name="ugrave" horiz-adv-x="550" d="M75 460Q80 462 90 464T113 467Q155 467 155 430V173Q155 108 189 81T283 53Q323 53 351 61T395 79V460Q400 462 410 464T432 467Q475 467 475 430V82Q475 61 470 49T443 24Q420 11 380 -1T282
-13Q182 -13 129 31T75 169V460ZM144 634Q142 644 142 647Q142 663 152 673T180 683Q201 683 215 666L305 553Q304 537 295 528T272 518Q261 518 254 522T238 534L144 634Z" />
<glyph unicode="&#xfa;" glyph-name="uacute" horiz-adv-x="550" d="M75 460Q80 462 90 464T113 467Q155 467 155 430V173Q155 108 189 81T283 53Q323 53 351 61T395 79V460Q400 462 410 464T432 467Q475 467 475 430V82Q475 61 470 49T443 24Q420 11 380 -1T282
-13Q182 -13 129 31T75 169V460ZM356 687Q378 686 391 675T405 649Q405 635 399 627T379 605L288 516Q268 516 256 526T244 550Q244 558 249 565T259 578L356 687Z" />
<glyph unicode="&#xfb;" glyph-name="ucircumflex" horiz-adv-x="550" d="M75 460Q80 462 90 464T113 467Q155 467 155 430V173Q155 108 189 81T283 53Q323 53 351 61T395 79V460Q400 462 410 464T432 467Q475 467 475 430V82Q475 61 470 49T443 24Q420 11 380
-1T282 -13Q182 -13 129 31T75 169V460ZM278 618Q255 590 233 567T190 520Q172 522 160 530T148 553Q148 564 154 572T170 591L231 657Q244 668 254 674T278 680Q294 680 304 674T325 656L409 556Q409 542 402 532T378 522Q366 522 359 527T343 541L278 618Z" />
<glyph unicode="&#xfc;" glyph-name="udieresis" horiz-adv-x="550" d="M75 460Q80 462 90 464T113 467Q155 467 155 430V173Q155 108 189 81T283 53Q323 53 351 61T395 79V460Q400 462 410 464T432 467Q475 467 475 430V82Q475 61 470 49T443 24Q420 11 380 -1T282
-13Q182 -13 129 31T75 169V460ZM236 601Q236 581 222 567T186 553Q165 553 152 567T138 601Q138 621 151 635T186 649Q208 649 222 635T236 601ZM409 601Q409 581 395 567T359 553Q339 553 325 567T310 601Q310 621 324 635T359 649Q380 649 394 635T409 601Z"
/>
<glyph unicode="&#xfd;" glyph-name="yacute" horiz-adv-x="489" d="M169 103Q156 127 139 164T104 247T66 344T30 449Q37 459 48 465T73 471Q90 471 100 462T119 432Q149 347 181 265T255 93H259Q275 124 292 168T325 263T356 364T382 463Q389 466 397 468T416
471Q433 471 444 463T455 437Q455 417 441 364T405 245T353 110T294 -14Q247 -99 210 -144T140 -190Q117 -190 105 -178T89 -150Q105 -136 125 -114T165 -67T203 -14T233 38Q216 43 202 55T169 103ZM329 687Q351 686 364 675T378 649Q378 635 372 627T352 605L261
516Q241 516 229 526T217 550Q217 558 222 565T232 578L329 687Z" />
<glyph unicode="&#xfe;" glyph-name="thorn" horiz-adv-x="553" d="M274 -13Q239 -13 208 -5T157 14V-180Q152 -182 142 -184T120 -187Q77 -187 77 -150V649Q82 651 92 653T114 655Q157 655 157 619V451Q179 461 207 468T269 475Q317 475 358 461T431 418T481
342T499 232Q499 170 483 124T436 48T365 2T274 -13ZM263 53Q333 53 375 95T418 232Q418 281 406 315T372 370T322 400T263 409Q228 409 203 401T157 381V85Q176 71 202 62T263 53Z" />
<glyph unicode="&#xff;" glyph-name="ydieresis" horiz-adv-x="489" d="M169 103Q156 127 139 164T104 247T66 344T30 449Q37 459 48 465T73 471Q90 471 100 462T119 432Q149 347 181 265T255 93H259Q275 124 292 168T325 263T356 364T382 463Q389 466 397 468T416
471Q433 471 444 463T455 437Q455 417 441 364T405 245T353 110T294 -14Q247 -99 210 -144T140 -190Q117 -190 105 -178T89 -150Q105 -136 125 -114T165 -67T203 -14T233 38Q216 43 202 55T169 103ZM208 601Q208 581 194 567T158 553Q137 553 124 567T110 601Q110
621 123 635T158 649Q180 649 194 635T208 601ZM381 601Q381 581 367 567T331 553Q311 553 297 567T282 601Q282 621 296 635T331 649Q352 649 366 635T381 601Z" />
<glyph unicode="&#x2013;" glyph-name="endash" horiz-adv-x="534" d="M60 228Q58 235 56 242T54 260Q54 294 89 294H474Q476 288 478 280T480 263Q480 228 446 228H60Z" />
<glyph unicode="&#x2014;" glyph-name="emdash" horiz-adv-x="767" d="M61 231Q58 238 56 245T54 263Q54 297 89 297H707Q709 291 711 283T713 266Q713 231 678 231H61Z" />
<glyph unicode="&#x2018;" glyph-name="quoteleft" horiz-adv-x="129" d="M51 600Q62 627 88 627Q96 627 105 624T119 616Q116 597 112 572T104 520T97 466T92 417Q75 410 55 410Q37 410 27 419T16 449Q16 464 19 485T28 529T40 570T51 600Z" />
<glyph unicode="&#x2019;" glyph-name="quoteright" horiz-adv-x="127" d="M79 437Q72 423 64 417T42 410Q33 410 25 413T10 421Q13 440 17 464T25 516T32 569T37 619Q55 625 75 625Q92 625 102 616T113 586Q113 571 110 550T101 508T89 467T79 437Z" />
<glyph unicode="&#x201a;" glyph-name="quotesinglbase" horiz-adv-x="131" d="M79 -121Q72 -135 64 -141T42 -148Q33 -148 25 -145T10 -137Q13 -118 17 -94T25 -42T32 11T37 61Q55 67 75 67Q92 67 102 58T113 28Q113 13 110 -8T101 -50T89 -91T79 -121Z" />
<glyph unicode="&#x201c;" glyph-name="quotedblleft" horiz-adv-x="263" d="M186 600Q197 627 222 627Q231 627 239 624T252 616Q249 597 245 572T237 520T230 466T226 417Q216 413 208 412T189 410Q153 410 153 449Q153 464 156 485T165 529T175 570T186 600ZM50
600Q56 614 64 620T86 627Q94 627 102 624T116 616Q113 597 109 572T101 520T94 466T89 417Q72 410 53 410Q16 410 16 449Q16 464 19 485T28 529T39 570T50 600Z" />
<glyph unicode="&#x201d;" glyph-name="quotedblright" horiz-adv-x="263" d="M76 437Q70 423 63 417T41 410Q32 410 24 413T10 421Q13 440 17 464T25 516T32 569T37 619Q46 622 54 623T73 625Q110 625 110 586Q110 571 107 550T98 508T87 467T76 437ZM213 437Q202
410 177 410Q168 410 160 413T147 421Q150 440 154 464T162 516T169 569T174 619Q183 622 191 623T210 625Q246 625 246 586Q246 571 243 550T234 508T223 467T213 437Z" />
<glyph unicode="&#x201e;" glyph-name="quotedblbase" horiz-adv-x="263" d="M76 -121Q70 -135 63 -141T41 -148Q32 -148 24 -145T10 -137Q13 -118 17 -94T25 -42T32 11T37 61Q46 64 54 65T73 67Q110 67 110 28Q110 13 107 -8T98 -50T87 -91T76 -121ZM213 -121Q202
-148 177 -148Q168 -148 160 -145T147 -137Q150 -118 154 -94T162 -42T169 11T174 61Q183 64 191 65T210 67Q246 67 246 28Q246 13 243 -8T234 -50T223 -91T213 -121Z" />
<glyph unicode="&#x2022;" glyph-name="bullet" horiz-adv-x="263" d="M49 282Q49 315 71 339T131 364Q168 364 190 340T213 282Q213 249 191 225T131 201Q94 201 72 225T49 282Z" />
<glyph unicode="&#x2039;" glyph-name="guilsinglleft" horiz-adv-x="279" d="M239 82Q239 67 230 55T201 42Q188 42 177 50T156 69L45 192Q35 207 35 226Q35 242 39 250T50 265L195 416Q234 407 234 380Q234 368 228 359T207 334L101 225L239 82Z" />
<glyph unicode="&#x203a;" glyph-name="guilsinglright" horiz-adv-x="279" d="M40 376Q40 391 49 403T77 416Q91 416 102 408T122 389L234 266Q244 251 244 232Q244 216 240 208T228 193L83 42Q45 51 45 78Q45 90 51 99T72 124L177 233L40 376Z" />
</font>
</defs>
</svg>
